<?xml version="1.0" encoding="utf-8"?>
<!-- Generator: Adobe Illustrator 23.0.2, SVG Export Plug-In . SVG Version: 6.00 Build 0)  -->
<svg version="1.1" id="Capa_1" xmlns="http://www.w3.org/2000/svg" xmlns:xlink="http://www.w3.org/1999/xlink" x="0px" y="0px"
	 viewBox="0 0 1920 1080" style="enable-background:new 0 0 1920 1080;" xml:space="preserve">
<style type="text/css">
	.st0{fill:#FF0000;}
	.st1{fill:#FF2020;}
	.st2{fill:none;}
</style>
<g>
	<g>
		<polygon class="st0" points="790.34,1036.74 605.34,1036.74 713.67,377.41 516.56,800.04 388.98,800.04 325.34,349.59 
			212.67,1036.74 37.28,1036.74 203.04,28.46 415.36,28.46 493.9,534.55 737.88,28.46 956.1,28.46 		"/>
		<g>
			<g>
				<g>
					<g>
						<path class="st1" d="M787.92,1036.34c-0.23,3.33,0.79,1.59,2.13-7.47l-0.15-6.62L787.92,1036.34z"/>
						<path class="st1" d="M800.16,975.83c1.17-10.74,2.16-23.18-0.08-16.47c-0.58,10.73-1.48,13.2-1.97,24.77
							c-1.35,9.08-2.98,15.74-3.18,14.14c-0.22,3.25-2.58,14.02-2.62,19.02c2.87-11.63,5.36-26.55,7.15-42.26
							C800.28,971.73,800.06,975.02,800.16,975.83z"/>
						<path class="st1" d="M947.47,91.49l-1.08,5.68C946.72,95.62,947.09,93.68,947.47,91.49z"/>
						<path class="st1" d="M616.9,273.95c1.81-3.82,2.47-5.47,2.46-5.71C617.72,271.81,616.39,274.75,616.9,273.95z"/>
						<path class="st1" d="M574.5,358.79c0.91-1.82,1.68-3.35,2.5-5C575.98,355.66,574.99,357.57,574.5,358.79z"/>
						<path class="st1" d="M947.47,91.49l2.79-14.58C950.03,75.82,948.73,84.36,947.47,91.49z"/>
						<path class="st1" d="M817.31,853.36c-0.45,3.08-0.75,5.65-0.99,8c0.37-2.52,0.73-4.97,1.1-7.49
							C817.38,853.73,817.34,853.6,817.31,853.36z"/>
						<path class="st1" d="M908.72,333.28l-0.73,4.45c-0.08,1.33-0.11,2.59-0.12,3.78L908.72,333.28z"/>
						<path class="st1" d="M878.42,518.74c0.73-4.19-0.05-5.81-0.23-7.49c0.03,2.44-0.28,5.57-0.8,9.26
							C877.57,520.61,877.89,520.09,878.42,518.74z"/>
						<path class="st1" d="M828.28,812.48l-0.72,5.24C827.75,816.36,828.07,814.06,828.28,812.48z"/>
						<path class="st1" d="M930.76,200.59c0.2-0.29,0.45-0.93,0.64-1.63C931.28,198.94,931.05,199.58,930.76,200.59z"/>
						<path class="st1" d="M615.45,1005.13c-0.05-0.16-0.13,0.04-0.18-0.02C615.2,1006.21,615.21,1006.55,615.45,1005.13z"/>
						<path class="st1" d="M790.34,1037l-3.02,0.06c-0.32,0.2-0.65,0.39-0.65,0.58L790.34,1037z"/>
						<path class="st1" d="M497.93,514.56c0.15-0.3,0.21-0.4,0.35-0.69C500.16,509.71,499.06,512.05,497.93,514.56z"/>
						<path class="st1" d="M61.07,865.66c3.84-17.66-3.59,29.18,1.83,2.53C62.09,870.62,65.31,843.56,61.07,865.66z"/>
						<path class="st1" d="M818.24,848.58c0.41-2.5,0.82-5.05,1.24-7.6C818.87,844.43,818.49,846.77,818.24,848.58z"/>
						<path class="st1" d="M62.9,868.19L62.9,868.19l0.56-2.75C63.22,866.58,63.09,867.22,62.9,868.19z"/>
						<path class="st1" d="M439.98,158.21c-0.05,0.84,0.05,2.43,0.18,4.1C440.24,162.16,440.22,161.23,439.98,158.21z"/>
						<path class="st1" d="M484.21,452.84l-0.99-7.31C483.57,448.44,483.9,450.79,484.21,452.84z"/>
						<path class="st1" d="M392.66,25.5c-4.01-0.08-5.37-0.22-10.84-0.08c0.51,0.05,1.01,0.09,1.66,0.13
							C385.46,25.4,388.1,25.34,392.66,25.5z"/>
						<path class="st1" d="M231.66,25.51c0.85,0.08,1.98,0.14,2.97,0.21c1.6-0.02,3.46-0.04,5.1-0.06L231.66,25.51z"/>
						<path class="st1" d="M694.3,522.21c-0.86,3.43-1.53,5.55-2.12,7.18C693.3,527.06,689.73,550.44,694.3,522.21z"/>
						<path class="st1" d="M817.9,853.37c-0.1-0.97-0.01-2.35,0.34-4.79c-0.28,1.83-0.55,3.58-0.81,5.29
							C817.5,854.36,817.62,854.48,817.9,853.37z"/>
						<path class="st1" d="M386.12,33.67l-25.58-0.15C367.69,33.62,376.99,33.67,386.12,33.67z"/>
						<path class="st1" d="M335.08,388.39l0.94,5.8C335.73,391.94,335.41,389.89,335.08,388.39z"/>
						<path class="st1" d="M284.62,33.67c-4.57-0.37-9.41-0.58-14.41-0.72c-1.06,0.08-2.27,0.15-2.97,0.27L284.62,33.67z"/>
						<path class="st1" d="M692.15,529.44c0.01-0.05,0.02-0.05,0.02-0.05S692.17,529.39,692.15,529.44z"/>
						<path class="st1" d="M667.26,696.11c3.98-24.05,0.54-11.51,0.61-16.74c4.34-28.77,3.17-13.12,5.46-22.78
							c2.59-17.99,3.62-31.93,5.87-45.29c0.38-0.96,0.89-3.55,0.67-0.45c2.05-19.13,9.19-56.27,11.48-78.57
							c0.39-1.62,0.64-2.43,0.81-2.83c-1.26,3.47-2.03,3.9-2.4,3.09c1.75-10.79,2.44-20.15,3.98-24.06
							c-1.11,6.6-0.85,7.21-1.08,10.35l1.47-11.36c2.93-9.96-2.1,15.49-1.16,15.65c3.21-22.1,6.38-47.95,9.51-64.77
							c1.81-3.33-6.07,39.55-1.27,17.2l-4.76,26.05c5.23-19.64-2.74,15.85,2.35-2.15c6.01-34.32,5.69-38.56,11.68-72.78
							c0.58-7.83-1.43,2.38-0.85-5.45c0.71-4.72,1.36-9.06,1.97-13.07c0.65-4.04,1.24-7.74,1.78-11.15
							c1.13-6.86,2.18-12.79,3.22-18.33c2.06-11.03,4.04-20.53,6.03-30.24c-1.94,3.35-4.1,7.26-7.61,14.48
							c-1.75,3.6-3.83,8.02-6.31,13.44c-2.47,5.41-5.34,11.83-8.54,19.15c-1.75,4.24-3.12,7.78-4.43,11.19
							c-1.14,2.95-2.33,6.01-3.8,9.81c-1.89,4.99-4.84,11.75-10.68,23.29l2.44-8.59c-14.38,30.51-6.3,18.31-22.09,49.92
							c2.15-5.92,10.78-24.22,8.47-19.67c-10.68,20.27-6.11,15.01-13.55,30.95l-2.68,2.77c-15,32.63-30.9,68.85-47.5,105
							c0.59-2.15,3.12-8.49-1.16-0.22c-20.63,45.72-45.39,96.97-66.52,140.5l-6.83,17.21c-1.83,3.89-3.81,7.02-2.04,2.71
							c-8.34,16.91,0.21,1.17-3.24,9.57c-4.47,9.75-6.55,12.58-3.97,6.28c-1.38,3.18-2.89,6.64-4.5,10.34
							c-0.81,1.85-1.65,3.76-2.51,5.73c-0.39,0.89-0.79,1.8-1.19,2.72c-0.13,0.33-0.26,0.67-0.4,1.02
							c-0.34,0.02-0.68,0.04-1.02,0.06l-0.13,0.01l-0.26,0.01l-0.81,0.02c-0.54,0.01-1.08,0.02-1.63,0.03
							c-2.18,0.04-4.39,0.08-6.63,0.12c-4.48,0.07-9.08,0.14-13.73,0.21c-9.31,0.13-18.87,0.22-28.25,0.27
							c-18.75,0.09-36.78-0.02-50.65-0.48l6.84-0.32c-6.8-0.11-12.13-0.03-16.68,0.14c-2.28,0.09-4.36,0.19-6.34,0.31l-0.37,0.02
							l-0.17,0.01l-0.07,0.01l-0.29,0.04c-0.21,0.03-0.41,0.06-0.61,0.09c-0.45,0.06-0.89,0.12-1.33,0.18l-0.34-1.15l-0.17-0.64
							c-0.06-0.25-0.1-0.35-0.21-0.92c-0.37-1.89-0.73-3.86-1.08-6c-0.71-4.27-1.38-9.2-2.02-15.53l0.87,4.78
							c-7.82-58.73-17.96-123.42-22.67-168.41c-2.74-8.29-7.52-58.16-10.2-61.63c-3.67-33.65-1.93-24.11-7.88-71.39
							c-1.68-12.61-4-18.59-6.42-34.14l1.07-0.54l-4.17-20.98l-0.25-11.44l-2.35-14.57c0.76,5.83,1.24,12.44,0.79,11.6
							c-0.47-2.84-0.93-5.85-1.37-8.93c-0.43-3.14-0.88-6.36-1.32-9.56c-1.34-9.9-2.63-20.02-3.83-29.67
							c-1.19-9.62-2.28-18.75-3.09-25.93c-0.81-7.16-1.35-12.32-1.37-13.53l-0.13-0.84l-7.63,49.45l-3.39,22.12l-1.95,13.37
							c-0.13-0.63,0.14-3.21,0.55-6.52c0.21-1.66,0.45-3.5,0.69-5.37c0.12-0.94,0.24-1.88,0.36-2.82c0.23-1.63,0.46-3.25,0.68-4.82
							c-0.23,1.63-0.45,3.17-0.66,4.62c-0.1,0.8-0.2,1.56-0.29,2.27c-0.19,1.42-0.36,2.66-0.51,3.74c-0.31,2.17-0.55,3.71-0.76,4.83
							c-0.41,2.24-0.65,2.79-0.89,3.27c-0.47,0.95-0.91,1.61-2.54,14.85c0.83-3.49,0.35,2.02,0.48,2.65
							c-2.83,13.01-7.73,42.88-11.07,65.02l-0.08-4.37c-6.74,39.88-13.43,84.2-20.79,129c3-16.01,3.73-12.1,1.7,1.06l-2.04,5.06
							c-0.66,8.6,2.7-13.65,0.74,3.91c-2.88,16.71-3.19,11.03-2,1.36l-2.93,20.41c-0.55,1.14,0.05-3.66-0.2-4.98
							c-0.63,8.47-6.95,34.92-7.64,47.17l-0.54,1.09c-7.35,44.78-10.28,65.15-16.2,101.64c0.91,0.88-1.66,15.11-2.62,26.11
							c-4.72,26.75-10.4,56.37-15.61,88.69c-3.21,22.78-0.22,6.77-1.29,17.08c-1.2,1.52-6.41,33.79-4.33,16.95
							c-3.07,19.4-5.04,31.79-7.2,45.46c-1.04,6.84-2.14,14.01-3.44,22.53c-1.23,8.25-2.65,17.82-4.41,29.71l0.14-0.39
							c0.05-0.16,0.07-0.18,0.16-0.6c0.15-0.66,0.3-1.31,0.44-1.94c0.29-1.25,0.54-2.39,0.75-3.26c0.42-1.75,0.66-2.45,0.56-0.88
							c-0.28,1.92-0.61,3.95-0.96,5.92c-0.07,0.36-0.13,0.72-0.2,1.08c-0.05,0.26-0.11,0.52-0.16,0.78
							c-0.11,0.49-0.22,0.96-0.32,1.4c-0.69-0.04-1.31-0.09-1.84-0.15c-0.26-0.03-0.5-0.06-0.72-0.09l-0.16-0.02
							c-0.1-0.01-0.19-0.02-0.29-0.02c-0.19-0.02-0.38-0.03-0.55-0.05c-1.37-0.13-2.04-0.26-1.67-0.39l2.38-0.1
							c-27.3,0.69-58.71,0.05-88.87-0.56c-15.08-0.3-29.84-0.6-43.62-0.71c-6.89-0.06-13.53-0.07-19.85-0.01
							c-3.16,0.05-6.23,0.09-9.21,0.14l-1.11,0.02l-0.53,0.01l-0.12,0.01l-0.5,0.06c-0.38,0.05-0.76,0.09-1.12,0.14
							c0-0.23-0.01-0.45-0.01-0.66l0.01,0.57l0.11-1.44l0.02-0.2l0.09-0.63l0.2-1.43l0.4-2.85l1.61-11.4l3.23-22.8
							c3.6-20.88-1.36,12.65,1.76-2.72c6.51-49.27,12.96-77.41,18.56-117.94c7.88-30.79,18.03-110.91,26.72-152.8l-1.05,2.33
							c1.16-11,2.54-13.12,4.01-21.13c-0.69,1.06-2.53,11.73-1.76,4.9c14.4-92.47,32.28-190.43,48.42-285.01
							c5.87-34.6-0.12-20.2,8.6-63.6l-0.84,12.59c10.05-70.11,23.54-142.87,33.56-211.47c-0.39,4.12-0.05,4.3-1.15,10.97
							c1.62-7.15,3.83-20.51,5.55-32.12c0.86-5.81,1.59-11.18,2.07-15.12c0.48-3.94,0.7-6.45,0.53-6.54
							c1.83-10.64,1.05-2.36,2.49-8.87c2.9-14.41,4.87-36.56,7-44.12c0.36-1.29-0.39,4.12-0.76,6.78c0.57-4.76,2.4-15.75,3.78-24.45
							c0.34-2.18,0.65-4.21,0.92-5.96c0.13-0.88,0.24-1.68,0.35-2.41c0.02-0.18,0.05-0.35,0.07-0.51l0-0.09
							c0-0.06-0.01-0.12-0.01-0.17c-0.03-0.41-0.14-0.76-0.47-0.29c0.07-0.29,0.13-0.57,0.2-0.84c0.41,0.02,0.81,0.04,1.22,0.05
							c1.42,0.01,2.83,0.02,4.23,0.03c3.02,0,6.01,0,8.97,0c5.91-0.04,11.67-0.08,17.28-0.12c11.22-0.09,21.83-0.16,31.75,0.13
							c13.53-1.14,44.54,0.55,48.84-1.06c-1.86,1.67,45.61,1.34,62.07,0.56c-5.51,0.5,14.3,0.52,7.85,1.22
							c5.2-0.01,10.28-0.03,14.81-0.09c2.27-0.04,4.4-0.07,6.35-0.11c0.17,0,0.13-0.01,0.16-0.01l0.06-0.01l0.12-0.02
							c0.08-0.01,0.16-0.02,0.24-0.04c0.17-0.03,0.34-0.06,0.49-0.08c0.08,0.19,0.16,0.37,0.24,0.54c0.05,0.09,0.09,0.17,0.13,0.25
							c0.03,0.06,0.04,0.02,0.08,0.17c0.04,0.16,0.08,0.31,0.12,0.44c0.31,1.08,0.52,1.34,0.59,0.59
							c3.33,34.48,12.25,68.45,12.71,88.09c9.44,54.97,17.95,105.87,26.03,155.38c-1.92-1.53-8.67-54.77-10.06-52.37
							c7.97,46.92,13.59,73.83,20.43,120.53c1.65,12.11-1.78-6.75-2.69-10.78c7.97,46.88,13.95,90.87,21.33,132.53
							c-0.17-0.09-1.04-4.58-1.82-8.82c1.33,8.23,2.73,19.2,3.33,18.15l-1.45-8c-0.96-13.32,7.34,32.37,8.14,33.75
							c-1.08-3.41-1.25-2.53-1,0.37c0.13,1.45,0.36,3.4,0.64,5.58c0.3,2.25,0.63,4.73,0.95,7.14c0.89,6.41,1.75,12.72,1.98,15.97
							c0.12,1.61,0.08,2.46-0.23,1.96c-0.3-0.52-0.87-2.36-1.87-6.57c0.77,4.48,1.65,9.33,2.31,12.48c0.66,3.17,1.1,4.58,1.08,2.82
							c0.08,0.55,0.15,1.08,0.19,1.34c2.43-4.86,4.02-7.91,4.34-8.19c0.3-0.25-0.66,2.22-3.65,9.06c5.51-11.66,9-19.19,11.45-24.59
							c0.3-0.67,0.6-1.31,0.87-1.93c0.18-0.42,0.36-0.83,0.53-1.21c0.3-0.7,0.57-1.35,0.83-1.95c0.51-1.21,0.94-2.26,1.37-3.3
							c1.71-4.13,3.32-7.92,9.2-20.1c0.29,0.25-1.96,5.23-2.78,7.93c5.31-12.65,10.64-25.36,20.85-45.82
							c-0.4,1.33,1.01-0.93-1.95,5.21c16.95-35.42,27.36-61.12,46.68-99.62c-4.09,12.14,6.83-12.97,9.06-14.43l9.69-21.05
							l-4.64,8.08c8.83-18.27,15.72-34.86,23.7-50.38l-6.04,13.83l16.28-34.37l-9.82,19.16c8.28-18.8-2.52,1.23,9.55-22.94
							c-2.26,5,8.83-18.28,14.15-27.45l-0.03,0.06c3.97-9.23,8.03-18.74,14.86-32.1c2.09-3.32,0.01,3.48,1.37,1.33
							c3.26-9.42,20.35-42.95,24.69-54.78c-1.56,3.89-1,4.4-0.27,3.23l2.77-7.89c4.35-8.34,5.08-9.51,4.93-7.89
							c12.43-25.4-5.47,7.33,9.78-22.57c-1.08,2.41-0.4,1.33-2.66,6.34c7.5-15.1,14.43-29.83,21.23-44.24
							c3.41-7.2,6.79-14.33,10.14-21.4c1.7-3.52,3.4-7.04,5.09-10.54c0.86-1.75,1.71-3.49,2.57-5.23l2.21-4.42
							c0.12-0.15,0.22-0.26,0.29-0.31c0.07-0.06,0.16,0.05,0.09,0.06c0.66,0.12,0.62,0.22,0.19,0.29c-0.06,0.28-0.2,0.7-0.4,1.21
							c-0.1,0.25-0.22,0.52-0.34,0.82c-0.21,0.46-0.43,0.96-0.67,1.48c-1.04,2.21-2.26,4.82-3.33,7.1c-2.14,4.56-3.6,7.84-1.3,4.17
							c1.22-2.58,2.45-5.17,3.68-7.78c0.62-1.31,1.23-2.62,1.86-3.94c0.34-0.74,0.68-1.48,1.02-2.23
							c19.08-0.28,38.58-0.58,57.86-0.86c19.94-0.28,39.66-0.47,58.5-0.32l-8.05-0.15c5.99-1.95,32.18,0.96,54.03,0.04
							c-5.35,0.15-7.01,1.08-5.57,0.87c9.11,0.1,18.34,0.09,28.11,0.01c4.89-0.05,9.91-0.1,15.13-0.16
							c2.61-0.04,5.26-0.07,7.97-0.11c1.83-0.04,3.69-0.08,5.59-0.12c-0.14,1.01-0.28,2.04-0.42,3.09c-0.22,1.49-0.43,3-0.66,4.53
							c-0.52,3.54-1.06,7.2-1.62,10.97c-1.12,7.55-2.32,15.57-3.59,24.1l0.41-5.56c-3.27,17.13-7.71,45.28-10.99,63.83
							c-0.41,5.6-2.24,16.22-0.46,9.88c-12.24,56.85-16.46,109.58-27.17,160.05c0.99-6.08,1.95-14.56,1.15-9.73l-6.67,43.39
							c1.4-3.29,1.44-5.6,3.59-14.59c-0.4,5.56-2.03,17.85-3.79,28.59c2.65-19.57-1.38-0.05-3.23,8.28c0.49-1.37,0.3,1.56,0.68,0.89
							c-5.21,22.38,1.07,4.07-5.02,34.8l-0.17-1.71c-1.68,11.6-2.84,22.35-5.02,34.8c-1.82,5.01,1.57-12.38,0.9-13.31
							c-2.82,17.52-3.84,34.86-7.41,50.55c0.95-7.48,2.71-18.18,3.66-25.66c-3.98,17.07-4.02,19.12-6.31,31.92l0.23-1.26
							l-5.39,29.57l1.55-7.5c-1.07,22.33-6.87,44.7-10.07,74.5c3.15-28.95-0.13-4.89-0.87-7.27c-1.55,7.49-3.77,18.89-3.55,15.58
							c-1.41,14.1-4.53,23.18-6.47,43.08c-0.5,0.82-2.49,14.92-2.86,11.63c-2.7,18.19,1.32-4.19,1.52-2.59
							c-3.39,28.16-12.27,65.49-17.22,105.98c-5.02,34.8-4.88,41.41-9.57,73.69c-2.35,10.77,0.17-9.11,0.17-9.11
							c-3.4,17.44-5.47,30.64-7.78,47.22c0.24-3.4-0.59,0.01-1.81,4.98c-2.09,13.27-0.17,9.07-3.56,26.47
							c0.1-3.06,0.1-7.02,0.75-13.47c-2.24,15.67-4.12,31.2-6.45,47.43c-1.32,4.19,0.67-9.91,1.2-15.68
							c-2.71,18.22-7.18,47.17-7.13,52.95l2.27-11.6c-1.04,6.63-1.4,3.27-0.77-1.65c1.79-15.7,4.03-22.4,4.53-23.23l-1.67,11.55
							c4.02-11.48,7.27-46.3,11.2-69.46l-0.08,9.91l2.65-23.98c1.22-4.99,2.64-8.31,0.98,3.17c3.48-16.49,1.88-14.8,5.06-28.94
							c0.39-1.55,0.34-0.83,0.16,0.64l2.22-16.31c-0.21,3.23,1.51-2.52-0.35,7.41c5.66-29,6.59-47.18,9.54-57.96l-0.31,2.45
							c6.14-40.52-0.47-4.09,3.22-34.63l6.09-19.96l-0.46-4.16c0.73-4.17,2.17-12.4,2.36-10.8c1.79-15.65-0.92,2.57-0.15-6.56
							c4.31-19.91,8.63-55.44,11.14-59.67c0.34-7.34-3.81,19.1-0.87-2.44c2.91-5.8,3.75-24.83,7.64-43.03
							c0.06,5.79-3.32,23.08,0.57,4.87c0.16-11.34,6.23-35.66,8.46-51.18c-1.2-0.94,4.98-33.73,8.81-59.76
							c0.17,1.71,8.76-48.73,13.2-72.8l0.1,0.75c-0.57-4.89,3.78-29.77,6.49-47.95c0.68,0.84,0.46,4.16-0.8,14.04l2.8-17.05
							c0.23-4.09,0.88-9.45,2.55-20.54l0.29,4.45c3.68-22.71,6.34-45.9,11.81-74.99c-0.66-1.8-6.41,22.8-1.95-8.18
							c0.69-1.06,1.74-2.06,0.62,6.05c0.37-2.66,1.13-9.51,2.23-14.8l-1.18,12.47c2.56-13.24,0.44-7.07,2.26-17.69
							c0.68,0.33,1.81-7.79,2.12-6.17c-0.38,2.73-1.82,9.23-2.21,13.34c2.1-11.97,4.91-26.39,6.24-31.09
							c-0.58,0.98-0.97-0.16,0.38-8.95c3.68-22.71,2.14-7.63,4.69-20.8c0.4-5.58,3.3-19.97,2.29-20.53c1.1-6.64,1.8-7.79,2.51-10.3
							c1.46-11.82,8.88-54.89,5.57-41.84l-0.57,3c0.08-0.57,0.17-1.23,0.27-1.93c-0.02,0.09,0,0-0.02,0.09l0.02-0.09
							c1.57-11.5,3.42-23.23,5.4-35.03c1.01-5.9,2.03-11.82,3.05-17.75c1.13-6.46,2.27-12.93,3.4-19.38
							c-8.73-0.08-17.43-0.15-26.04-0.23c-8.06-0.04-16.04-0.04-23.89,0.06l0.06-0.36c-23.11,0.42-51.43,0.25-67.94,1.03
							c-6.84,0-16.13-0.66-13.21-1.1c-17.67,0.27-19.65,0.68-45.16,0.08c17.76-0.63-6.13-0.56,18.2-0.46
							c-22.95-0.31-28.15-0.9-52.8,0.1c2.31-0.26,2.04-0.46,0.18-0.62c-0.93-0.08-2.25-0.14-3.84-0.2
							c-0.86-0.03-1.42-0.05-3.03-0.07c-1.41-0.02-2.9-0.04-4.44-0.05c-1.67,3.42-3.54,7.26-5.32,10.89
							c-1.46,3.04-2.81,5.93-3.81,8.16l7.72-14.47c-1.36,2.87-2.67,5.64-3.96,8.36c-1.26,2.61-2.49,5.16-3.7,7.68
							c-2.45,5.01-4.83,9.87-7.22,14.76l1.46-5.84c-21.74,41.66-34.5,77.41-52.28,108.53c-4.62,11.56,11.62-22.72,7.7-12.27
							c-9.53,19.39-20.89,38.91-23.83,45c-13.46,26.36-10.38,25.65-24.25,53.35c2.11-3.38,4.79-6.24-4.89,14.79
							c-9.54,19.41-13.19,23.14-7.58,10.7c2.22-4.69,3.43-6.88,3.47-6.62c2.89-6.36,6.7-14.7,2.56-7.19l-0.82,2.72
							c-5.06,9.47-17.94,36.28-15.55,29.68c-6.72,14.9-2.39,6.6,3.07-4.2C596,313.95,589.78,328.26,577,353.79
							c2.19-3.98,4.47-7.53,2.5-3.46c-18.67,37.48-7.26,16.97-19.41,42.61c-7.6,14.23,1.08-5.89-10.82,20.07
							c-7.98,15.51-2.65,2.82,0.04-3.58c-10.54,23.8-21.61,43.55-28.2,56.87l5.63-12.5c-3.37,7.47-6.29,13.52-9.26,19.67l4.19-6.67
							c-3.63,7.18-6.59,13.32-6.86,13.02c-3.09,7.72,4.07-5.09-2.37,10.08c-2.53,4.73-5.97,12.14-9.11,18.72
							c-0.79,1.64-1.56,3.23-2.28,4.72c-0.37,0.74-0.72,1.46-1.06,2.14c-0.14,0.27-0.28,0.54-0.41,0.8
							c-0.09,0.17-0.18,0.33-0.27,0.49c-0.69,1.25-1.23,1.98-1.51,1.89c0.41-0.81,0.77-1.52,1.08-2.13c0.53-1.09,0.97-2,1.35-2.78
							c0.98-2.04,1.57-3.33,1.89-4.1c0.64-1.55,0.22-1.06-0.28-0.43c-1.01,1.27-2.37,3.08,3.74-9.82c-1.13,2.51-2.43,5.28-3.9,8.32
							c-0.74,1.52-1.52,3.11-2.33,4.77c-0.41,0.83-0.83,1.68-1.27,2.54c-0.15,0.29-0.12,0.22-0.16,0.3l-0.08,0.13l-0.15,0.26
							c-0.1,0.06-0.11-0.06-0.09-0.21c0.01-0.08,0.02-0.16,0.04-0.25l0.03-0.13l0.01-0.03l0.08-0.18l0.17-0.38l-0.24,0.46
							c-0.05,0.11-0.04,0.07-0.05,0.09l-0.02,0.03l-0.09,0.11c-0.05,0.07-0.1,0.13-0.15,0.19c-0.08,0.11-0.16,0.2-0.23,0.29
							c-0.13,0.17-0.21,0.29-0.29,0.44c-0.14,0.29-0.26,0.67-0.41,1.24c-0.17,0.22-0.42,0.87-0.79,0.46
							c-0.18-0.21-0.4-0.72-0.65-1.73c-0.06-0.26-0.13-0.55-0.2-0.85l-0.05-0.24c-0.04-0.22-0.08-0.44-0.12-0.66
							c-0.08-0.48-0.17-0.99-0.26-1.5c-0.33-2.08-0.71-4.43-1.14-7.12c1.3,4.1,0.04-7.85-0.94-13.23c2.05,13.33-0.09,6.54-2.48-5.61
							c-2.79-21.28-3.95-22.98-5.61-34.1l1.73,12.71c-1.31-4.19-2.87-14.81-5.37-29.55c0.31-1.34,2.43,13.37,1.83,8.06
							c-3.68-16.23-4.58-37.26-8.89-60.02c-1.21-10.67,1.05-1.21-0.09-10.57c-4.82-25.51-3.42-27.91-8.3-54.76
							c0.34,7.9,0.76,9.23-3.03-9.62l7.49,44.22l-5.68-28.24c2.06,13.37,4.93,28.13,6.02,36.17c-2.81-13.44-2.38-12.08-2.11-5.57
							c-1.54-18.5-6.39-36.16-8.79-57.45l2.25,0.31c-3.98-31.95-9.87-56.33-15.74-97.71l1.69,13.33c-1.71-5.41-4.08-25.48-6.5-38.79
							c0.91,1.13-0.12-7.27-0.56-13.04c-0.43,0.78-4.64-30.23-6.66-33.76l-1.91-18.58c-4.79-33.4-7.95-37.73-12.68-69.82
							c2.28,9.53,0.53-5.11,4.42,16.27c-1.65-10.7-3.02-20.35-3.54-20.44c-0.03-0.42-0.09-0.91-0.16-1.46
							c-0.09-0.61-0.19-1.3-0.29-2.05c-0.34-2.09-0.74-4.55-1.18-7.26c-1.89,0.03-3.91,0.06-6.01,0.09
							c-1.56,0.04-3.19,0.07-4.85,0.11c-2.87,0.07-5.87,0.15-8.78,0.22c-5.83,0.12-11.36,0.16-15.02-0.1
							c-4.57,0.32-6.06,1.08-18.22,1.02c-1.33-0.15,0.05-0.36,0.05-0.36c-0.05,0.36-19.03,0.49-8.41,1.29
							c-33.36-2.27-93.24,0.16-122.28-1.78c-10.82,0.09-22.58,0.2-33.67,0.3c-2.51,15.76-4.9,30.83-6.92,43.52
							c0.01-1.39-0.35-0.13,0.39-4.12c-5.47,29.09-0.89,18.29-7.1,51.4c-3.95,16.79,2.27-17.75,0.09-7.24
							c-3.12,4.22-6.27,40.16-11.33,62.3l0.75-5.44c-3.61,16.96-5.96,41.86-10.72,69.76c0,0,0.01-1.39-0.33-0.22
							c-1.94,19.3-7.48,55.52-11.56,82.45c0.45-8.51,1.52-12.29-0.26-7.34c-1.85,12.07,2.09-3.28-1.6,20.8
							c-1.79,7.73-5.08,25-6.46,27.14l3.67-22.69c-3.21,11.4-4.78,29.36-6.97,41.27l-0.32-1.62c-5.53,34.78-4.18,35.5-10.42,72.84
							l1.06-3.79c-1.94,20.64-3.61,16.98-5.9,37.52l-2.45,5.93c-1.87,13.53-6.37,47.41-10.07,71.61
							c1.19-13.86,5.29-42.21,7.53-59.81c-2.21,13.35-7.35,45.39-7.79,52.46c0.75-5.4,1.51-12.24,2.6-17.52
							c-1.56,16.56-4.55,38.21-8.95,64.81c-2.01-5.17-12.1,69.23-17.43,88.17c-6.71,47.23-15.79,93.29-24.64,148.15
							c5.36-19.09-2.57,16.02,0.21,13.02c-1.96,12.79-2.79,17.66-3.13,18.78l-7.69,38.48c-2.16,9.07,1.51-12.23,0.82-11.13
							c-4.77,27.93-2.87,11.58-6.5,29.98c1.42-3.66-0.46,9.91-3.38,25.8l4.71-22.28c-5.24,39.27-7.42,33.47-12.72,73.05l1.35-12.57
							c-0.71,4.98-1.82,12.02-3.1,20.09c-1.58,9.9-3.36,21.08-5.14,32.29c4.41-0.02,8.82-0.05,13.2-0.07
							c2.38-0.03,4.74-0.06,7.08-0.09c4.66-0.07,9.19-0.16,13.43-0.27c8.49-0.22,15.86-0.54,20.97-1c3.62,0.26,8.41,0.88-0.61,1.04
							c20.61,0.11,43.19-0.21,65.24-0.54c11.03-0.15,21.92-0.3,32.37-0.44c5.23-0.04,10.34-0.08,15.31-0.12
							c6.03,0,11.87,0,17.49-0.01c0.47-2.78,0.93-5.51,1.38-8.19c0.3-1.68,0.59-3.33,0.87-4.95c0.58-3.23,1.15-6.31,1.73-9.26
							l-0.06,3.75c1.32-9.04,1.55-15.86,3.95-27.05c0.13,0.62-0.05,3.72,0.66-0.45c0.6-4.8,2.97-24.1,5.25-35.99l-1.06,10.31
							c8.44-47,10.37-72.56,16.48-112.13c1.58,0.36,8.18-36.63,11.48-55.09l0.12,0.68c9.2-54.84,13.96-93.42,21.66-144.33
							c6.91-31.25,18.25-106.72,27.53-157.25c-1.56,7.7-1.04-1.47,0.28-10.5c2.28-11.84,4.28-33.07,5.44-30.94l-0.72,4.24
							c2.91-8.73,6.54-33.24,9.71-52.32l-1.4-3.46c0.92-4.14,1.83-8.5,2.72-13.03c0.22-1.13,0.44-2.28,0.67-3.43
							c0.11-0.58,0.22-1.16,0.33-1.74l0.08-0.44l0.04-0.17l0.07-0.3c0.17-0.74,0.34-1.5,0.52-2.26c0.63-2.86,1.08-5.38,1.58-8.63
							c0.43,2.79,0.9,5.47,1.45,8.67c0.14,0.82,0.28,1.64,0.42,2.45c0.34,2.27,0.69,4.52,1.02,6.74c0.71,4.77,1.4,9.42,2.07,13.89
							c2.62,17.88,4.61,32.96,5.06,42.18c2.19,12.02,4.3,27,6.47,38.91l-1.12-0.5c4.47,33.54,6.7,50.28,12.8,91.65l-1.93-8.34
							c3.23,23.36,7.14,29.07,10.25,50.6l-0.63,6.7c5.78,40.74,10.25,82.17,17.34,122.23c-0.32-0.63-0.93-1.76-1.93-8.35
							c0.85,6.35,2.22,16.62,3.64,27.24c0.73,5.31,1.47,10.7,2.16,15.73c0.97,6.59,1.87,12.7,2.62,17.76
							c1.93-0.02,3.76-0.05,5.47-0.07c0.85-0.01,1.67-0.03,2.46-0.04c0.67-0.02,1.31-0.03,1.93-0.05c1.6-0.07,2.91-0.15,3.89-0.25
							c1.96-0.2,2.56-0.47,1.37-0.83c0.48,1.39,42.45,0.14,64.68-0.48l-3.46,1.03c18.76-1.31,19.36-1.67,45.55-2.03
							c6.21,0.13,5.44,0.82-2.81,0.56c2.96,0.08,5.41,0.11,7.48,0.12c1.28,0,2.44-0.01,3.51-0.01c1.28-0.02,2.45-0.03,3.54-0.05
							c0.57-1.31,1.1-2.51,1.6-3.66c0.23-0.55,0.46-1.08,0.68-1.61c0.15-0.38,0.31-0.76,0.46-1.14c0.62-1.51,1.24-3.02,1.98-4.83
							c1.52-3.6,3.65-8.32,7.61-16.34l-3.36,8.75c9.07-19.25,8.03-17.87,12.29-28.81c5.28-12.3,17.3-36.48,19.47-38.93
							c0.7-2.84,4.94-13.72,10.48-24.97c1.03-1.38-0.7,2.85-1.57,4.97c15.67-31.95,21.28-48.46,32.54-70.21
							c0.52-0.32,1.35-1.69,2.3-3.49c-11.97,25.61-21.65,46.22-20.81,44.26c0.86,0.4,10.66-20.23,4.17-3.21
							c7.1-16.92,18.94-45.98,28.76-65.96c0.54-0.94,1.07-1.86,1.54-2.53l-0.88,2.13c2.26-4.62,4.12-8.82,5.81-12.81
							c3.14-6.37,5.15-10.41,8.05-16.59c1.82-2.06,11.45-23.55,16.3-33.86c-1.34,0.42,5.12-13.02-1.56-0.73
							c0.83-1.61-0.8,2-3.96,8.88c-0.7,1.56-1.53,3.4-1.95,4.45c0.07-0.21,0.15-0.47,0.25-0.74c-3.14,6.78-7.24,15.63-11.9,25.68
							c3.32-8.37,6.9-17.08,12.74-28.25c1.87-5.58,3.96-11.69,5.21-15.11c7.89-13.51,21.3-40.4,23.87-43.81
							c7.17-15.84,15.61-34.5,23.38-51.68c1.92-4.31,3.8-8.52,5.61-12.58c1.12-2.51,1.22-2.84,1.66-3.91c0.41-1.03,0.81-2.03,1.2-3
							c1.65-4.16,3.55-9.06,5.76-14.96c1.16-2.7,1.84-4.06,2.16-4.47c0.33-0.43,0.31,0.02,0.24,0.56c-0.32,1.26-0.62,2.44-0.97,3.84
							c0.01-0.28,0.04-0.59,0.08-0.94c-1.34,3.15-2.49,5.65-3.31,7.96c0.84-2.02,1.85-4.33,2.97-6.87
							c-0.33,2.29-0.68,4.75-1.02,7.18c-0.37,2.67-0.74,5.31-1.07,7.7c-0.16,1.29-0.31,2.5-0.44,3.62
							c-0.14,1.29-0.26,2.48-0.37,3.51c-0.38,3.31-0.56,5.69-0.44,6.68c-4.64,24.48,1.04-14.02-4.3,19.8l0.34-4.63
							c-13.06,66.1-14.33,108.59-29.18,181.81c1.01-5.07,1.5-7.61,1.9-8.62c-15.01,83.79-27.3,173.27-42.84,255.83
							c-4.26,23.49-3.82,26.19-5.53,40.67l-1.94,4.92l-2.77,24.79c-2.22,16.18-5.08,30.21-8.06,45.02
							c-1.49,7.41-3.01,15.01-4.5,23.18c-0.74,4.09-1.48,8.31-2.2,12.73c-0.35,2.21-0.7,4.46-1.06,6.77
							c-0.5,3.32-1.02,6.72-1.54,10.2c2.18-0.04,4.47-0.09,6.83-0.14c1.14-0.03,2.29-0.06,3.46-0.08c0.83-0.03,1.67-0.06,2.51-0.09
							l-1.44-0.19l-0.72-0.09c-0.24-0.03-0.46-0.06-0.81-0.09l-3.65-0.37c2.26,0.01,4.85,0.02,7.65,0.02
							c2.48-0.01,5.15-0.01,7.89-0.02c5.48-0.02,11.25-0.04,16.44-0.06c10.38-0.02,18.41,0.05,17.07,0.48
							c1.64-0.14,5.27-0.78,11.55-0.39l0.49,0.58l39.46-1c30.59,0.42-4.79,2.31,39.85,2.42c16.59-0.22,47.25-1.69,41.02-2.08
							c-6.7-0.03-17.11-0.36-17.61-0.95l15.18-0.3c2.75-1.71,14.42-3.47-22.83-4.67l-25.96,1.05l-8.36-0.83l21.85-0.05
							c-12.39-0.78-20.25-0.09-29.05,0.38c-2.08-0.44-5.73-0.75-10.88-0.92l-25.48,1.64c-3.09-0.67,11.43-1.33-5.67-1.7
							c-11.94,0.76,11.45,1.5-8.31,2c-12.42-0.78-8.79-1.41-23.37-0.75c-2.05-0.44,1.04-0.72,6.81-0.92
							c-12.98,0.53-34.33,0.22-41.03,1.14c-0.65-0.04-1.35-0.08-2.09-0.13c-0.18-0.01-0.37-0.02-0.56-0.03l-0.26-0.03
							c-0.16-0.02-0.32-0.03-0.48-0.05c-0.65-0.06-1.31-0.1-2-0.13c0.13-0.69,0.27-1.4,0.41-2.13c0.27-1.59,0.54-3.2,0.8-4.79
							c0.63-3.78,1.25-7.47,1.79-10.7c1.12-6.44,2.06-10.95,2.62-10.34c0.28-4.09,2.45-22.75,4.31-34.52
							c-1.61,21.8,7.34-44,8.47-37.98c0.89-16.18,8.67-57.56,12.34-85.87c-0.12,1.6-0.35,4.74-0.85,7.21
							c2.75-15.83,4.02-20.35,6.02-30.48c-1.09-2.27,2.64-27.01,3.95-40.46c4.57-19.2-0.27,12.07,2.06,6.19
							c-1.31,0.79,4.39-33.95,2.35-27.5c3.29-14.72,2.52-12.74,4.95-20.2c-1.35-2.9,1.97-13.88,2.9-26.39
							c4.41-21.36,2.58-5.26,5.92-28.97C670.08,675,667.26,696.11,667.26,696.11z M606.64,600.36c-0.01,0-0.02-0.01-0.02-0.01
							c2.05-4.45,3.8-8.25,4.91-10.67C610.52,591.9,609.1,594.99,606.64,600.36z M586.43,643.73c2.47-5.27,5.55-11.84,8.81-18.79
							c1.03-1.37,0.6,0.43-1.45,4.79C594.68,627.26,589.72,637.39,586.43,643.73z M635.71,555.05c-3.07,6.92-4.32,9.14-4.96,9.99
							c1.48-3.25,3.21-7.06,5.49-12.05c0.06-0.22,0.21-0.65,0.26-0.86C636.38,552.86,636.2,553.68,635.71,555.05z"/>
						<path class="st1" d="M640.23,542.14c0.44-1,0.66-1.57,1.25-2.86c-0.73,1.37-1.42,2.67-2.12,4c-0.29,0.88-0.58,1.78-0.84,2.57
							C639.1,544.59,639.7,543.3,640.23,542.14z"/>
						<path class="st1" d="M946.2,98.16l0.19-0.99c-0.18,0.82-0.34,1.57-0.49,2.07C946.06,98.57,946.09,98.58,946.2,98.16z"/>
						<polygon class="st1" points="343.04,441.08 342.79,441.18 343.6,445.29 						"/>
						<path class="st1" d="M899.95,357.59c-0.17,0.48-0.42,1.44-0.82,3.37C899.22,360.82,899.56,359.36,899.95,357.59z"/>
						<path class="st1" d="M881.26,469.87l-2.98,15.82C879.62,478.85,880.54,473.86,881.26,469.87z"/>
						<path class="st1" d="M866.55,556.14c0,1.12,0.08,1.46,0.16,1.76c0.01-0.07,0.02-0.11,0.04-0.17L866.55,556.14z"/>
						<path class="st1" d="M478.28,459.87c-0.2-1.16-0.39-2.31-0.56-3.33C476.31,448.74,477.21,454.05,478.28,459.87z"/>
						<path class="st1" d="M642.03,230.87c-1.74,4.04-3.45,8.02-5.34,12.2C639.96,236.46,642.47,231.31,642.03,230.87z"/>
						<path class="st1" d="M388.92,33.69c0.05-0.01,0-0.01,0.05-0.02c-0.99,0-1.86,0-2.85,0L388.92,33.69z"/>
						<path class="st1" d="M628.32,260.41c3.39-6.55,6.02-12.12,8.38-17.34C634.01,248.48,630.82,254.85,628.32,260.41z"/>
						<path class="st1" d="M804.56,930.34l-0.73,4.15c0.08-0.06,0.09,0.2,0.08,0.52L804.56,930.34z"/>
						<path class="st1" d="M803.92,935.02l-0.64,4.64C803.63,937.53,803.92,935.69,803.92,935.02z"/>
						<path class="st1" d="M801.94,949.42l1.34-9.77C802.72,943.02,802.01,947.17,801.94,949.42z"/>
						<path class="st1" d="M823.83,816.1l-0.16-1.37C823.63,815.46,823.67,815.94,823.83,816.1z"/>
						<path class="st1" d="M829.43,781.34c-1.45,8.27-4.21,20.66-5.88,32.26l0.12,1.13C824.01,809.21,828.76,789.32,829.43,781.34z"
							/>
						<path class="st1" d="M857.85,637.1l-5.08,29.06c1.23-5.02,2.86-11.63,0.78,1.63C860.76,631.28,851.42,675.21,857.85,637.1z"/>
						<path class="st1" d="M873.26,546.93c-2.39,15.67,0.6-0.09,0.69,0.78C875.22,537.72,875.52,535.31,873.26,546.93z"/>
						<path class="st1" d="M820.08,26.1l1.6-0.94C809.46,25.29,821.56,25.52,820.08,26.1z"/>
						<polygon class="st1" points="720.96,69.33 726.65,58.88 728.33,53.41 						"/>
						<polygon class="st1" points="682.5,133.66 684.69,128.8 676.15,147.3 						"/>
						<path class="st1" d="M260.3,24.59l3.69,1.16C272.25,25.54,273.98,24.24,260.3,24.59z"/>
						<path class="st1" d="M131.92,444.48c-1.42,5.06-3.97,18.3-4.76,26.59C128.99,460.45,131.18,449.92,131.92,444.48z"/>
						<path class="st1" d="M323.73,387.72c0,0.43,0,0.81,0.01,1.14l-0.57,4.65l0.66-4.5l0.08-0.96l0.18-2.12L323.73,387.72z"/>
					</g>
				</g>
			</g>
		</g>
	</g>
	<g>
		<path class="st0" d="M1692.71,282.24c0,81.01-17.69,148.85-52.46,204c-35.08,55.15-82.57,96.63-142.79,124.45l165.76,426.05
			h-206.73L1321.76,667.3h-103.99l-60.84,369.44h-185L1137.69,28.46h279.99c87.54,0,155.21,20.99,203.32,62.96
			C1668.8,132.9,1692.71,196.83,1692.71,282.24L1692.71,282.24z M1493.11,325.68c0-40.51-9.31-69.3-27.94-85.89
			c-18.31-17.08-45.32-25.87-81.33-25.87h-91.57l-44.7,271.83h90.95c49.04,0,87.23-14.15,114.23-41.97
			C1479.76,414.98,1493.11,375.94,1493.11,325.68L1493.11,325.68z"/>
		<g>
			<path class="st2" d="M1692.71,282.24c0,81.01-17.69,148.85-52.46,204c-35.08,55.15-82.57,96.63-142.79,124.45l165.76,426.05
				h-206.73L1321.76,667.3h-103.99l-60.84,369.44h-185L1137.69,28.46h279.99c87.54,0,155.21,20.99,203.32,62.96
				C1668.8,132.9,1692.71,196.83,1692.71,282.24L1692.71,282.24z M1493.11,325.68c0-40.51-9.31-69.3-27.94-85.89
				c-18.31-17.08-45.32-25.87-81.33-25.87h-91.57l-44.7,271.83h90.95c49.04,0,87.23-14.15,114.23-41.97
				C1479.76,414.98,1493.11,375.94,1493.11,325.68L1493.11,325.68z"/>
			<g>
				<g>
					<g>
						<path class="st1" d="M1495.56,325.68c-0.32-0.47-1.03-0.21-0.91,1.09l1.2,0.93L1495.56,325.68z"/>
						<path class="st1" d="M1493.16,334.38c0.55,1.54,1.47,3.35,2.65,2.4c-1.08-1.56-0.58-1.92-1.96-3.59
							c-0.12-1.3,0.43-2.26,0.87-2.03c-0.3-0.47,0.3-2.02-0.45-2.73c-0.97,1.68-1.05,3.8-0.3,6.06
							C1493.69,334.97,1493.38,334.5,1493.16,334.38z"/>
						<path class="st1" d="M1446.45,447.54l0.67-0.45C1446.91,447.18,1446.68,447.34,1446.45,447.54z"/>
						<path class="st1" d="M1377.49,479.91c0.57-0.14,0.79-0.3,0.8-0.41C1377.77,479.67,1377.34,479.83,1377.49,479.91z"/>
						<path class="st1" d="M1364.29,480.59c0.29,0.02,0.52-0.01,0.78-0.01C1364.76,480.5,1364.46,480.48,1364.29,480.59z"/>
						<path class="st1" d="M1446.45,447.54l-1.81,1.07C1444.79,449,1445.63,448.14,1446.45,447.54z"/>
						<path class="st1" d="M1494.91,352.09c-0.02-0.45-0.1-0.83-0.22-1.18c0.02,0.37,0.03,0.72,0.03,1.09
							C1494.79,352.03,1494.84,352.05,1494.91,352.09z"/>
						<path class="st1" d="M1467.01,420.66l0.33-0.53c-0.02-0.23-0.07-0.46-0.15-0.69L1467.01,420.66z"/>
						<path class="st1" d="M1478.31,397.31c-0.25,0.53,0.65,1.1,0.99,1.48c-0.28-0.47-0.32-0.95-0.21-1.47
							C1478.91,397.24,1478.66,397.23,1478.31,397.31z"/>
						<path class="st1" d="M1490.02,357.52l-0.05-0.75C1489.99,356.96,1489.99,357.29,1490.02,357.52z"/>
						<path class="st1" d="M1456.03,435.62c-0.15-0.06-0.31-0.08-0.43-0.05C1455.7,435.65,1455.85,435.66,1456.03,435.62z"/>
						<path class="st1" d="M1495.79,294.34c-0.08-0.01-0.12,0.03-0.18,0.03C1495.74,294.51,1495.82,294.55,1495.79,294.34z"/>
						<path class="st1" d="M1492.84,325.68l-0.06-0.43c-0.2-0.05-0.39-0.09-0.58-0.09L1492.84,325.68z"/>
						<path class="st1" d="M1340.26,480.67c0.05,0.01,0.06,0.01,0.11,0.02C1341,480.56,1340.64,480.59,1340.26,480.67z"/>
						<path class="st1" d="M1273.21,356.24c-1.33,2.36-0.5-4.28-2.14-0.67C1271.54,355.28,1272.11,359.27,1273.21,356.24z"/>
						<path class="st1" d="M1494.71,352.77c-0.01,0.36-0.06,0.73-0.12,1.09C1494.69,353.37,1494.73,353.03,1494.71,352.77z"/>
						<path class="st1" d="M1271.08,355.57L1271.08,355.57l-0.17,0.37C1270.98,355.79,1271.02,355.7,1271.08,355.57z"/>
						<path class="st1" d="M1283.91,481.32c0.12,0.18,0.34,0.32,0.57,0.45C1284.46,481.67,1284.33,481.54,1283.91,481.32z"/>
						<path class="st1" d="M1325.92,482.8l-1.04-0.14C1325.29,482.75,1325.62,482.79,1325.92,482.8z"/>
						<path class="st1" d="M1262.09,482.79c-0.57-0.08-0.76-0.22-1.53-0.08c0.07,0.05,0.14,0.09,0.23,0.13
							C1261.08,482.69,1261.45,482.62,1262.09,482.79z"/>
						<path class="st1" d="M1251.82,478.15c-0.1,0.11-0.18,0.25-0.27,0.38c-0.02,0.22-0.04,0.49-0.06,0.72L1251.82,478.15z"/>
						<path class="st1" d="M1462.73,232c0.23,0.55,0.29,1,0.29,1.4C1463.19,232.6,1466.13,234.56,1462.73,232z"/>
						<path class="st1" d="M1494.33,352.04c0.25,0.16,0.36,0.37,0.38,0.73c0.01-0.26,0.01-0.52,0.01-0.77
							C1494.58,351.92,1494.43,351.89,1494.33,352.04z"/>
						<path class="st1" d="M1261.17,490.95l-3.61-0.15C1258.57,490.9,1259.88,490.95,1261.17,490.95z"/>
						<path class="st1" d="M1301.63,209.7l0.83-0.12C1302.13,209.55,1301.84,209.58,1301.63,209.7z"/>
						<path class="st1" d="M1241.66,489.63c0.62-1.51,1.05-2.85,1.41-4.15c-0.05-0.21-0.07-0.48-0.17-0.6L1241.66,489.63z"/>
						<path class="st1" d="M1463.02,233.42c0-0.01,0-0.01,0-0.01S1463.01,233.41,1463.02,233.42z"/>
						<path class="st1" d="M1481.73,250.41c-2.03-3.12-2.07-0.71-3.15-0.92c-1.33-1.7-1.51-2.19-1.27-2.55
							c0.22-0.35,0.77-0.48,0.59-1.29c-1-0.98-2.02-1.72-3.03-2.34c-1.02-0.61-1.92-1.18-2.58-1.95c0.06-0.26-0.14-0.62,0.37-0.46
							c-0.34-0.18-0.69-0.41-1.03-0.68c-0.36-0.26-0.74-0.54-1.12-0.85c-0.76-0.63-1.54-1.36-2.35-2.1
							c-1.63-1.41-3.33-2.82-5.03-3.33c-0.12-0.24-0.14-0.41-0.13-0.53c-0.01,0.86-0.39,1.44-0.78,1.76
							c-1.26-0.95-2.82-1.1-2.75-2.18c0.74,0.61,1.02,0.38,1.55,0.44l-1.54-0.71c-0.42-1.94,2.05,1.04,2.64,0.29
							c-0.71-0.42-1.47-0.83-2.23-1.23c-0.76-0.4-1.58-0.73-2.33-1.1c-1.52-0.72-2.89-1.46-3.86-2.23c0.1-0.65,1.43-0.03,2.38,0.53
							c0.96,0.55,1.63,0.93,0.56-0.48l2.93,2.6c-1.29-3.31,1.87,1.49,0.85-1.81c-4.09-3.28-5.16-2.76-9.45-5.63
							c-1.35,0.07-0.16,1.08-1.51,1.15c-3.44-1.18-4.4-2.38-5.17-3.57c-0.39-0.58-0.73-1.13-1.32-1.58
							c-0.6-0.43-1.47-0.73-2.87-0.85c-1.61,0.26-2.62,1.48-5.88-0.5l1.68-0.91c-4.64-1.76-3.28,0.99-7.91-1.38
							c1.02-0.28,3.83,0.64,3.17,0.27c-2.89-2-2.49,0.08-4.94-0.59l-0.2-1.34c-5.14-1.16-10.95-1.31-16.63-1.91
							c0.36-0.33,1.39-0.57,0.11-1.14c-7.27-0.38-15.36-1.66-22.35-2.5l-2.67,1.04c-0.62-0.02-1.14-0.5-0.48-0.71
							c-2.67-0.42-0.14,0.68-1.42,1.11c-1.51,0.08-2-0.62-1.04-0.95c-4.69,0.92-13.37,1.97-18.31,0.82l0.96-0.32
							c-3.85-0.44-4.34,2.22-7.91,1.21l0.68-0.19c-8.35-0.47-17.59,0.52-23.96-1.11c-1.21,1.56-8.27-0.69-8.81,1.48
							c-4.77-1.08-3.4-1.46-10.12-2.19c-1.79-0.1-2.67,1.36-4.89,1.58l-0.05-1.13l-3.01,1.19l-1.6-1.36l-2.08,0.29
							c0.83,0.07,1.76,0.51,1.64,0.84c-1.63,0.26-3.61,0.06-5.19-0.28c-0.4-0.08-0.77-0.18-1.1-0.27c-0.17-0.05-0.33-0.1-0.48-0.15
							c-0.26-0.05-0.49-0.1-0.71-0.15c-0.88-0.2-1.47-0.39-1.54-0.53l-6.52,0.48l-0.63,6.83c-0.39-0.43-0.18-2.7-0.14-4.74
							c-0.04,2.04-0.13,3-0.26,3.55c-0.13,0.54-0.3,0.62-0.47,0.69c-0.17,0.07-0.34,0.12-0.47,0.62c-0.13,0.43-0.29,1.74-0.14,2.48
							c0.34-0.46,0.62,0.38,0.84,0.5c-0.98,1.74-1.68,5.95-1.91,9.11l-0.67-0.72c-1.12,5.6-1.58,11.92-2.63,18.24
							c0.73-2.21,1.99-1.47,1.81,0.41l-1.3,0.55c0.53,1.32,0.76-1.86,1.26,0.74c-0.52,2.34-1.61,1.36-1.77-0.05l-0.06,2.94
							c-0.38,0.11-0.46-0.59-0.88-0.84c0.54,1.3-2,4.76-1,6.66l-0.38,0.1c-1.05,6.31-1.11,9.24-1.9,14.4
							c1.01,0.27,0.45,2.24,1.02,3.91c-0.95,3.73-2.44,7.79-3.1,12.36c-0.02,3.28,0.71,1.08,1.08,2.62
							c-0.97,0.08-1.63,4.65-1.91,2.18c-0.75,5.49-0.96,7.01-1.34,14.05c0.51-0.69,0.81-1.5,1.05-1.01
							c-0.05,1.28-0.86,2.79-1.28,2.54l-0.04-0.35c0.12,7.99-5.66,17.46-4.73,23.96l-0.04-0.36l-0.04,6.57
							c-0.65,2.92-0.41-1.88-1.34,0.2c0.42,7.17-2.02,10.88-1.92,16.75c-3.47,3.95-2.38,15.67-5.11,21.33l0.7-0.24
							c0.38,1.64-0.68,1.8-1.01,2.91c0.53-0.08,0.86-1.57,1.05-0.56c-1.36,13.15-5.36,26.72-8.14,39.97
							c-0.98,4.85,2.89,3.32,0.33,9.22l-0.91-1.94c-0.18,10.09-3.36,20.14-3.73,29.98c-0.18-0.62-0.54-0.7-0.38-1.64
							c-1.21,1.89-1.28,7.53-0.57,7.68c-0.33,1.49-0.7,0.24-1.22,1.11c-0.85,1.96,0.27,5.31-0.78,6.26
							c-0.17,0.16-0.19-0.62-0.19-1.01c0.2,1.4-1.13,6.19,0.09,5.08c-0.54,1.77-0.71,3.52-0.88,5.18c-0.02,0.28-0.14,1.14-0.23,1.8
							c-0.1,0.68-0.21,1.36-0.31,2.02c-0.22,1.33-0.49,2.62-0.87,3.97c0.26,0.97,0.04,2.56-0.29,4.34c2.95,0.07,6.18,0.38,7.28-0.65
							c-0.31,0.42,0.15,0.71,1.17,0.9c0.51,0.1,1.15,0.17,1.89,0.22c0.37,0.02,0.76,0.04,1.16,0.06c0.27,0.01,0.56,0.02,0.85,0.03
							c1.93,0.03,4.18-0.25,5.34-0.64c-0.78,0.5,2.02,0.52,1.11,1.22c2.65-0.02,5.07-0.33,4.61-1.19c4.88,1.99,9.8-1.6,12.55,0.95
							c7.86-0.9,15.14-1.5,22.21-1.89c-0.26,1.66-7.82,0.17-7.52,1.91c6.71-0.68,10.58-2.11,17.24-1.71c1.72,0.23-0.98,0.72-1.56,1
							c6.7-0.68,12.96,0.15,18.93-0.75c-0.02,0.15-0.66,0.32-1.27,0.45c1.18-0.05,2.73,0.24,2.6-0.51l-1.15,0.21
							c-1.88-1.1,4.67-2.29,4.88-2.87c-2,2.16,5.89,0.54,2.72,3.28c0.77-0.14,1.74-0.5,1.57-1.01c1.15,0.15,1.51,0.44,0.35,1.02
							c4.25-0.46,2.74-1.26,6.6-1.3c-0.01,0.37-0.78,0.52-1.17,0.96c1.95-0.77,3.88-1.43,7.15-1.35c-0.19,0.23,0.21,0.5-0.77,0.55
							c2.8-0.22,5.16-0.8,7.58-1.36c2.41-0.61,4.88-1.12,7.97-1.08c-0.81,0.87-0.28,0.97,0.52,0.97c0.8-0.01,1.86-0.08,2.11,0.58
							l3.24-0.87l-1.41-0.48c1.44-0.19,2.76-0.62,4.03-0.99c1.26-0.42,2.48-0.79,3.74-0.79l-2.02,0.95l5.3-1.24l-3.12,0.05
							c2.74-1.23-0.63-1.65,3.21-1.97c-0.37,0.13,0.34,0.04,1.34-0.11c1-0.14,2.29-0.27,3.11-0.04l-0.01,0.01
							c1.29-0.76,2.61-1.5,4.75-1.71c0.65,0.27-0.05,1.59,0.38,1.78c1.06-1.52,6.49-2.12,7.81-3.88c-0.48,0.46-0.29,1.16-0.06,1.24
							l0.84-1.27c1.36-0.15,1.6-0.07,1.57,0.54c3.89-1.14-1.78-1.24,3-2.07c-0.33,0.19-0.11,0.26-0.81,0.65
							c2.36-0.54,4.44-1.64,6.51-2.58c1.02-0.5,2.06-0.93,3.06-1.43c1.01-0.49,2.02-0.93,3.07-1.29c1.77,0.71-3.38,1.93-1.54,2.37
							c1.44-0.73,2.87-1.54,4.29-2.38c1.43-0.82,2.78-1.83,4.16-2.73c2.79-1.78,5.39-3.75,8.13-5.2l-1.07,0.47
							c-0.15-1.06,0.97-1.41,2.36-1.89c1.38-0.49,3.09-1.06,4.11-2.32c-0.55,0.55-0.21,1.46-0.16,1.16
							c0.92-0.54,1.83-1.12,2.71-1.82c0.86-0.71,1.73-1.49,2.62-2.33c0.89-0.85,1.84-1.73,2.81-2.73c0.95-1.02,1.96-2.11,3.06-3.29
							l-0.27,0.9c0.55-0.33,1.14-0.75,1.76-1.22c0.31-0.24,0.62-0.49,0.94-0.75c0.3-0.28,0.61-0.56,0.92-0.84
							c1.23-1.14,2.46-2.33,3.51-3.19c0.11-0.46,0.46-0.94,0.62-1.29c0.15-0.37,0.13-0.59-0.44-0.49c1.89-1.06,3.45-2.41,4.8-3.89
							c0.69-0.73,1.28-1.52,1.82-2.35c0.55-0.81,1.07-1.64,1.58-2.46c0.51-0.82,1.02-1.63,1.53-2.43c0.48-0.82,0.97-1.63,1.5-2.4
							c1.04-1.55,2.3-2.92,3.79-4.15c-0.45,0.76-0.83,1.98-0.41,1.42c1.05-1.83,2-3.71,3-5.56c-0.99-0.03-0.88,0.43-2.14,1.18
							c-0.01-0.94,0.61-2.62,1.41-3.93c-1,2.66,1.22,0.71,2.19-0.15c-0.33,0.05-0.37-0.46-0.65-0.5c2.91-2.1-1.22-1.32,1.83-4.69
							l0.28,0.42c0.32-0.77,0.5-1.58,0.71-2.39c0.22-0.8,0.48-1.6,0.93-2.37c1.21-0.23-0.37,1.79,0.31,2.26
							c0.53-1.15,0.66-2.47,0.89-3.71c0.11-0.62,0.25-1.21,0.48-1.75c0.21-0.55,0.5-1.05,0.95-1.47c-0.09,0.54-0.27,1.18-0.48,1.8
							c-0.22,0.61-0.45,1.23-0.56,1.77c2.16-1.74,1.97-2.16,2.88-3.79l-0.1,0.16l2.18-3.76l-0.72,0.89
							c-0.29-0.98-0.28-1.84-0.16-2.67c0.11-0.84,0.37-1.63,0.67-2.45c0.58-1.64,1.39-3.36,1.25-5.64c0.15,4.41,0.65,0.95,1.62,1.61
							c0.64-0.93,1.46-2.42,1.62-1.87c-0.26-2.21,1.71-3.03,1.28-6.15c0.38-0.03,0.59-2.09,1.34-1.4c0.4-2.63-0.76,0.44-1.14,0.1
							c-0.08-2.12,0.91-4.31,1.84-6.77c0.85-2.47,1.73-5.2,1.47-8.21c0.08-2.54-0.14-4.08-0.35-5.56c-0.11-0.74-0.22-1.47-0.29-2.3
							c-0.08-0.83-0.17-1.78-0.17-2.93c0.77-1.47,1.13,1.45,1.13,1.45c0.85-2.42,0.99-4.33,0.89-6.73c0.25,0.51,0.59,0.05,1.06-0.63
							c0.08-1.92-1.19-1.4-0.44-3.85c0.36,0.47,0.95,1.08,1.27,2.04c-0.13-2.28-0.59-4.56-0.72-6.89c0.68-0.57,0.83,1.47,1.16,2.32
							c-0.01-0.66-0.02-1.42-0.03-2.19c-0.04-0.78-0.09-1.58-0.17-2.32c-0.15-1.48-0.41-2.74-0.88-3.17l-0.44,1.65
							c0-0.95,0.88-0.44,1.02,0.27c0.66,2.29-0.51,3.21-0.88,3.31l-0.14-1.67c-0.55,0.39-0.82,1-0.93,1.74
							c-0.13,0.74-0.11,1.62-0.02,2.56c0.17,1.88,0.56,3.99,0.35,5.65l-1.4-1.53c0.32,1.17,0.65,2.34,0.91,3.52
							c-0.49,0.68-1.4,1.06-1.42-0.58c-1.05,2.26,0.27,2.15-0.83,4.06c-0.16,0.2-0.22,0.09-0.25-0.12l0.16,2.35
							c-0.26-0.49-1.12,0.23-0.72-1.15c-0.67,1.99-0.68,3.67-0.66,5.04c0.02,1.37,0.06,2.42-0.64,3.08l-0.03-0.36
							c-0.22,2.87,0.02,3.06,0.4,3.1c0.38,0.03,0.9-0.1,1.09,2.16l-3.33,2.26l0.98,0.8c-0.16,0.57-0.49,1.7-0.89,1.39
							c0.28,2.33,0.56-0.26,0.99,1.16c-1.72,2.52-1.53,7.78-3.45,7.9c0.54,1.23,1.4-2.44,1.11,0.65c-2.11,0.28-0.75,3.47-2.37,5.69
							c-0.7-1.08,0.53-3.25-1.09-1.06c1.19,2.06-2.05,4.63-2.47,6.78c0.59,0.28,0.36,1.47-0.26,2.99c-0.62,1.52-1.52,3.4-2.04,5.18
							c-0.08-0.1-0.33,0.23-0.69,0.82c-0.38,0.58-0.91,1.42-1.47,2.36c-1.15,1.87-2.41,4.17-3.5,5.51l-0.15-0.19
							c0.85,1.2-1.03,4.2-2.13,6.53c-0.66-0.51-0.63-1.04-0.28-2.43c-0.37,0.71-0.81,1.37-1.23,2.05c0.07,0.7-0.14,1.46-0.84,2.86
							l-0.53-1.05c-1.57,2.74-2.58,6-5.5,8.96c0.59,0.76,4.07-1.11,1.93,2.82c-0.51-0.18-1.3-0.58-0.75-1.61
							c-0.18,0.33-0.5,1.31-1.15,1.77l0.41-1.89c-1.47,1.24-0.04,1.21-1.05,2.34c-0.55-0.47-1.1,0.55-1.42,0.02
							c0.18-0.34,1.05-0.84,1.18-1.46c-1.16,1.24-2.76,2.57-3.6,2.74c0.4,0.15,0.77,0.63,0.05,1.64c-2.08,2.42-1.39,0.25-2.9,1.38
							c-0.13,0.91-1.86,2.07-1.1,2.85c-0.63,0.69-1.09,0.48-1.57,0.52c-0.83,1.47-5.39,5.43-3.27,4.99l0.36-0.24
							c-0.04,0.07-0.11,0.14-0.16,0.22c0.01-0.01,0,0,0.01-0.01l-0.01,0.01c-0.76,1.17-1.8,2.11-2.84,3.04
							c-1.06,0.92-2.19,1.78-3.33,2.61c-1.19,0.77-2.39,1.53-3.54,2.32c-1.16,0.78-2.22,1.65-3.29,2.47l-0.2-0.3
							c-1.2,1.08-2.65,2.14-3.97,3.17c-1.32,1.04-2.62,1.92-3.39,2.86c-0.82,0.5-2.27,0.59-2.14,0.01c-1.94,1.53-2.05,1.94-5.45,3.1
							c1.88-1.72-1.01-0.1,2.01-1.59c-1.48,0.61-2.44,0.86-3.35,1.28c-0.46,0.21-0.9,0.45-1.39,0.81c-0.5,0.33-1.06,0.74-1.73,1.33
							c0.65-1.32-2.66-0.06-3.91,0.82l2.29-0.32c-1.5,0.81-2.85,1.44-4.29,1.89l0.28-1.43c-1.64,0.25-3.07,0.79-4.39,1.45
							c-0.66,0.33-1.29,0.69-1.9,1.07c-0.62,0.37-1.23,0.7-1.83,1.04c-1.21,0.68-2.38,1.31-3.6,1.73c-0.61,0.21-1.22,0.37-1.86,0.43
							c-0.64,0.05-1.3,0.01-1.98-0.12c-1.41,1.3,3.56-0.39,2.38,0.99c-2.96,0.67-6.41-0.18-7.3,0.07c-4.11,0.32-3.28,2.62-7.57,3.16
							c0.31,0.15,0.66,0.48,0.54,0.92c-0.11,0.44-0.69,0.98-2.26,1.47c-3.03,0.39-3.99-1.13-2.19-1.82c0.7-0.17,1.07-0.09,1.07,0.06
							c0.93-0.33,2.14-0.75,0.88-1l-0.3,0.5c-1.55-0.17-5.58,0.62-4.75-0.26c-2.15,0.82-0.83,0.88,0.86,0.8
							c-1.94,0.06-3.42,0.26-4.92,0.48c-1.5,0.23-3.01,0.49-4.99,0.55c0.65,0.15,1.29,0.58,0.67,0.66c-5.84,0.11-2.45,1.1-6.38,1.69
							c-2.3-0.45,0.66-1.66-3.25-0.73c-2.46-0.32-0.59-1.11,0.33-1.55c-3.54,1.07-6.75-0.17-8.79-0.2l1.87-0.46
							c-1.12,0.27-2.04,0.34-2.98,0.34c0.37,0.28,0.74,0.58,1.11,0.85c-1.12-0.12-2.06-0.11-2.05-0.47
							c-1.13,0.59,0.93,1.44-1.34,2.26c-1.5-0.42-4.55,0.56-5.07-0.59c4.69,0.31-0.52-1.16,3.43-1.42
							c-0.76,0.15-1.69,0.16-2.81,0.03c-0.17-0.13,0.16-0.24,0.46-0.32c-4.48-0.97-2.07,1.33-6.77,1.32c0.6-0.65-1.09-1.24-1.86-1.1
							c1.9,0.01,0.91,1.09-0.83,1.59c-3.03-0.51-3.29,0.38-4.87,0.32l1.81,0.24c-0.61,0.65-2.13,0.57-4.23,0.77
							c-0.18-0.51,1.92-0.35,1.16-0.57c-2.34,1.15-5.29-1.19-8.56-0.42c-1.51-0.44-0.15-1.23-1.47-1.53
							c-3.66,0.85-3.96-0.9-7.81-0.2c1.11,0.88,1.3,0.66-1.41,1.52l6.32-0.62l-4.06,1.28c1.91,0.01,4.03-0.55,5.17-0.4
							c-1.93,0.72-1.73,0.5-0.82,1.23c-2.61-1.32-5.18,0.77-8.2-0.12l0.09-2.18c-4.54-0.97-8.06,1.12-13.95,0.57l1.89,0.38
							c-0.79,0.86-3.64,0.12-5.55,0.47c0.18-0.73-1.02-0.99-1.83-1.44c0.1,0.54-4.31-0.05-4.85,1.4l-2.63-0.96
							c-4.76-0.39-5.43,2.07-10,1.82c1.38-0.79-0.7-1.31,2.36-1.87c-1.53-0.01-2.9-0.14-2.92,0.36c-0.89-0.45-4.23,0.98-5.64,0.29
							c-0.64,0.32-0.85,1.08-2.57,1.02c-0.19-0.15,0.01-0.36,0.01-0.36c-0.01,0.36-2.68,0.49-1.19,1.29
							c-0.63-0.3-1.32-0.52-2.06-0.68c-0.3-0.06-0.6-0.13-0.91-0.19c-0.26-0.05-0.53-0.09-0.79-0.11c-1.05-0.11-2.2-0.06-3.4-0.01
							c0.12-0.95,0.25-1.94,0.49-2.85c0.12-0.45,0.27-0.87,0.45-1.23c0.09-0.18,0.19-0.34,0.3-0.48c0.13-0.24,0.27-0.48,0.42-0.7
							c0.3-3.33,0.72-7.33,1.16-10.32c0.18,0.23,0.36,0.07,0.19,0.62c1.34-4.01-1.64-2.87-0.13-7.43c1.55-2.2,0.22,2.59,0.9,1.17
							c2.47-0.26,0.61-5.71,2.5-8.64l0.01,0.79c1.2-2.28,0.07-6.03,0.89-9.94c0,0,0.18,0.23,0.35,0.08
							c-0.76-2.89-0.32-8.06-0.03-11.9c0.73,1.33,0.21,1.8,1.26,1.24c0.15-1.72-1.59,0.25-1.29-3.18c0.69-1.02,1.53-3.39,2.59-3.55
							l-0.47,3.21c1.57-1.42,0.64-4.15,1.14-5.79l0.53,0.31c0.62-4.93-0.79-5.23,0.17-10.48l-0.52,0.47
							c-0.94-3.11,1.19-2.28,0.61-5.33l1.58-0.63c-0.03-1.96-0.29-6.88,0-10.33c0.75,2.1,0.64,6.18,0.86,8.75
							c0.32-1.88,0.95-6.42,0.4-7.51c0.01,0.78,0.21,1.8-0.14,2.51c-0.75-2.5-0.8-5.63-0.16-9.37c2.67,1.12,2.31-9.66,4.92-12.03
							c0.06-6.81,2.6-13.09,3.71-20.85c-2.61,2.39,0.31-2.27-1.99-2.16c0.15-1.82,0.3-2.5,0.47-2.64l2.22-5.24
							c0.86-1.19,0.21,1.79,0.73,1.71c0.82-3.91,1.21-1.5,2.23-4.01c-0.88,0.4-0.91-1.56-0.24-3.76l-1.55,3
							c-0.28-5.7,2.65-4.46,2.39-10.2l0.41,1.87c0.06-2.92,1.74-10.51,0.42-13.6c0.34-0.46,1.06-1.03,1.01,0.25
							c1.39-6.77,0.59-15.47,2.56-20.59l0.46,0.61c0.05-1.3-0.66-2.38,0.15-3.88c0.21,0.12,0.46,0.6,0.59,0.02
							c-0.08-0.7-0.4-3.53,0.2-5.16l0.37,1.54c1.8-6.53,0.19-10.44,0.73-16.07c1.6,0.28,2.98-4.86,3.67-7.43l0.21,0.13
							c1.47-7.7,0.83-13.36,1.39-20.63c2.47-4.16,3.2-14.94,5.35-21.93c-0.47,1.04-1.22-0.38-1.17-1.68
							c0.6-1.62-0.35-4.82,1.08-4.31l-0.13,0.59c0.82-0.51,1.28-1.65,1.59-2.99c0.16-0.67,0.28-1.39,0.39-2.12
							c0.05-0.36,0.11-0.72,0.16-1.08c0.05-0.31,0.1-0.61,0.15-0.91c-0.63-0.14-1.26-0.34-1.88-0.58c0.62-0.49,0.97-0.77,1.17-1.12
							c0.33,0.08,0.6,0.11,0.86,0.12c0.13,0,0.26,0,0.39-0.01l0.2-0.02c0.1-0.01,0.04-0.02,0.34-0.03c1.77-0.08,3.53-0.23,5.18-0.33
							c3.29-0.2,6.13-0.23,7.71,0.8c1.72-0.49,3.85-0.48,5.56-0.97l-0.09,1.04c4.77,0.27,7.15,0.4,13.05,0.15l-1.2,0.75
							c3.33,0.07,4.2-3.01,7.27-3.07l0.92,1.56c5.8-0.02,11.68,1.34,17.41-0.07c-0.09,0.23-0.26,0.68-1.2,0.74
							c2.73,0.04,10.56,1.05,9.57-1.08c0.07,1.39,5.99,0.14,9.12-0.48l-0.49,1.03c2.65-1.31,2.73-1.67,6.42-2.03
							c0.88,0.13,0.77,0.82-0.4,0.56c2.92,0.54,2.27-0.97,5.81-0.43l-1.32,0.66c3,0.08,2.76-0.28,4.4-1.02
							c1.88-0.37,5.64,0.32,6.03,1.31c0.41-0.55,2.07-1.22,3.81-0.87c0.22,0.36-0.43,0.55-0.76,0.64c2.45,0.44,4.29,0.33,5.96,0.2
							c1.66-0.13,3.14-0.23,4.77,0.5c0.03,0.35,0.23,0.54,0.5,0.68c-0.97-0.12-1.89-0.24-2.72-0.35c-0.84-0.08-1.59-0.16-2.2-0.22
							c-1.23-0.13-1.94-0.22-1.79-0.24c-0.07,0.94,3.04,1.37,0.45,2.46c2.55-0.55,7.02-1.59,10.01-0.74
							c0.13,0.11,0.26,0.23,0.35,0.39l-0.33,0.06c0.68,0.2,1.32,0.22,1.93,0.15c0.94,0.31,1.53,0.52,2.45,0.68
							c0.23,0.8,3.43,1.11,4.94,1.44c0.09-1.04,2.07-0.47,0.36-1.68c0.23,0.12-0.32,0.06-1.35-0.1c-0.24-0.02-0.51-0.06-0.68-0.03
							c0.04-0.02,0.08-0.05,0.12-0.07c-1.02-0.16-2.33-0.46-3.85-0.65c1.32-0.35,2.68-0.49,4.27,0.41c0.92-0.49,1.95-0.99,2.51-1.2
							c1.81,1.92,5.63,3.62,5.91,4.7c4.77,0.63,10.63,3.14,14.18,2.51c1.34,0.35,1.2,1.17,1.53,1.66c-0.79-0.15-1.62-0.57-2.11-0.49
							c1.32,0.34,3.16,1.13,4.81,1.74c1.61,0.68,3.05,1.15,3.67,0.71c1.37,1.08,0.78,1.13,0.4,1.15c-0.39,0.04-0.55,0,1.5,1.13
							l-0.75,0.03c0.84,0.83,1.69,1.52,2.55,2.11c0.85,0.61,1.68,1.18,2.55,1.65c1.76,0.93,3.44,1.81,5.23,2.68
							c0.9,0.42,1.73,0.97,2.6,1.5c0.85,0.56,1.75,1.12,2.53,1.84c0.8,0.7,1.59,1.49,2.35,2.37c0.74,0.9,1.35,1.98,1.94,3.14
							c-0.34-0.64-0.52-0.95-0.44-1.21c3.44,4.71,7,9.47,9.96,14.73c2.98,5.22,5.2,10.93,5.91,16.75c0.58,3.25,1.45,3.38,2.58,5.19
							l-0.91,0.96c0.68,1.01,1.4,2.03,2.02,3.09c0.92,2.33,0.74,4.55,0.48,6.91c-0.21,2.36-0.29,4.81,0.91,7.8l0.65-0.89
							c0.05,1.12,0.39,2.87,0.54,4.32c0.13,1.45,0.15,2.57-0.29,2.42c0.15,0.22,0.83,0.67,0.51,1.58l-0.58,0.11
							c0.5,1.8,0.92,3.62,1.33,5.45c-0.25,4.29-2.29-0.56-2.22,5.64c0.26,2.29,1.79,6.56,2.17,5.7c0.01-0.94,0.33-2.4,0.91-2.48
							l0.33,2.13c1.72,0.37,3.5,2.07,4.62-3.28l-1.1-3.69l0.78-1.22c0.08,1.04,0.09,2.09,0.13,3.13c0.77-1.8,0.03-2.91-0.51-4.15
							c0.43-0.32,0.71-0.85,0.84-1.6l-1.8-3.56c0.64-0.49,1.43,1.56,1.64-0.92c-0.89-1.66-1.37,1.73-2.09-1.05
							c0.64-1.83,1.31-1.37,0.48-3.4c0.42-0.33,0.73,0.08,0.99,0.9c-0.35-0.91-0.47-2.14-0.7-3.24c-0.23-1.11-0.5-2.09-1.01-2.52
							c0.37-0.98,0.14-2.54-0.01-3.85c-0.18-1.31-0.24-2.38,0.57-2.41c-0.49-0.53-1.73-3.07-2.13-4.74
							c2.52,2.74-1.13-6.35,1.05-5.98c-1.13-0.96-1.83-2.97-2.48-5.23c-0.75-2.23-1.45-4.73-2.58-6.55c0.2,0.18,0.64,0.52,0.65,0.9
							c-0.62-2.27-0.37-3.09-0.57-4.64c-0.75,0.11-1.43-0.69-2.27-1.65c-0.81-0.97-1.63-2.15-2.42-2.87
							c0.16-3.22,2.23,0.93,3.11-0.42c-0.52,0.3-1.25-0.76-1.98-1.71c-0.75-0.93-1.43-1.77-1.66-1.11c-0.2-2.37-0.46-1.89,0.09-3.48
							c-1.75,0.49-1.3-1.69-3.17-2.75c-0.41-1.62-0.16-2.03-0.1-2.36c0.07-0.34-0.04-0.62-1.27-1.97c-0.24-0.87,0.21-0.73,0.73-0.36
							C1481.15,249.82,1481.73,250.41,1481.73,250.41z M1409.34,212.8c0-0.01,0-0.02,0-0.02c0.7,0.08,1.3,0.15,1.68,0.2
							C1410.67,212.94,1410.19,212.87,1409.34,212.8z M1402.53,212.04c0.83,0.1,1.86,0.23,2.95,0.36c0.2,0.38-0.1,0.72-0.78,0.62
							C1405.1,212.83,1403.52,212.4,1402.53,212.04z M1415.56,221.11c-1.04-0.06-1.34-0.33-1.45-0.56c0.48,0.07,1.05,0.15,1.8,0.23
							c0.04-0.03,0.11-0.06,0.14-0.1C1415.93,220.86,1415.78,221.02,1415.56,221.11z"/>
						<path class="st1" d="M1417.66,220.15c0.15,0.01,0.24-0.02,0.44,0.01c-0.19-0.13-0.37-0.25-0.56-0.35
							c-0.15,0.08-0.3,0.17-0.43,0.25C1417.29,220.08,1417.48,220.12,1417.66,220.15z"/>
						<path class="st1" d="M1447.24,447l-0.12,0.08c0.11-0.05,0.22-0.1,0.31-0.1C1447.33,447.01,1447.31,446.99,1447.24,447z"/>
						<polygon class="st1" points="1309.14,209.19 1309.15,209.45 1309.74,209.22 						"/>
						<path class="st1" d="M1472.89,420.02c0.11-0.02,0.26-0.09,0.47-0.3C1473.29,419.7,1473.11,419.84,1472.89,420.02z"/>
						<path class="st1" d="M1480.44,405.59l1.25-1.98C1481.1,404.45,1480.73,405.08,1480.44,405.59z"/>
						<path class="st1" d="M1485.51,394.11c-0.12-0.21-0.23-0.3-0.33-0.37c-0.01,0.01-0.01,0.01-0.02,0.02L1485.51,394.11z"/>
						<path class="st1" d="M1326.77,489.72c-0.17,0.01-0.33,0.02-0.48,0.05C1325.17,489.97,1325.93,489.89,1326.77,489.72z"/>
						<path class="st1" d="M1385.14,482.33c-0.57,0.32-1.13,0.64-1.74,0.91C1384.44,483.07,1385.24,482.91,1385.14,482.33z"/>
						<path class="st1" d="M1261.57,490.97c0.01-0.01,0-0.01,0.01-0.02c-0.14,0-0.26,0-0.4,0L1261.57,490.97z"/>
						<path class="st1" d="M1380.71,483.79c1.08,0.03,1.92-0.24,2.69-0.56C1382.55,483.36,1381.54,483.5,1380.71,483.79z"/>
						<path class="st1" d="M1495.88,340.98l0.07-0.6c-0.07,0.01-0.12-0.03-0.16-0.08L1495.88,340.98z"/>
						<path class="st1" d="M1495.79,340.3l-0.09-0.67C1495.68,339.93,1495.68,340.2,1495.79,340.3z"/>
						<path class="st1" d="M1495.51,338.21l0.19,1.42C1495.73,339.14,1495.79,338.54,1495.51,338.21z"/>
						<path class="st1" d="M1493.88,357.41l0.35,0.24C1494.16,357.53,1494.05,357.45,1493.88,357.41z"/>
						<path class="st1" d="M1493.31,362.41c0.3-1.17,1.2-2.87,1.19-4.57l-0.28-0.19C1494.66,358.5,1492.89,361.2,1493.31,362.41z"/>
						<path class="st1" d="M1484.5,381.78l1.34-3.91c-0.57,0.6-1.33,1.38-0.95-0.44C1482.42,382.13,1486.03,376.61,1484.5,381.78z"
							/>
						<path class="st1" d="M1480.18,393.77c0.59-2.12-0.56-0.17-0.73-0.36C1479.31,394.83,1479.28,395.19,1480.18,393.77z"/>
						<path class="st1" d="M1423.76,463.33l-0.28-0.93C1422.1,463.39,1423.64,462.73,1423.76,463.33z"/>
						<path class="st1" d="M1409.89,475.51l1.81-0.09c0.14-0.36,0.28-0.73,0.41-1.11C1411.38,474.73,1410.63,475.1,1409.89,475.51z"
							/>
						<polygon class="st1" points="1397.75,472.84 1398.4,472.48 1395.86,473.7 						"/>
						<path class="st1" d="M1252.37,480.44c-0.42,0.18-0.85,0.4-1.28,0.64C1251.21,481.65,1252.66,480.88,1252.37,480.44z"/>
						<path class="st1" d="M1261.87,415.4c0.69-0.63,1.37-2.45,1-3.7C1262.54,413.19,1261.85,414.62,1261.87,415.4z"/>
						<path class="st1" d="M1296.12,218.74c0.1,0.21,0.2,0.39,0.3,0.54c-0.07-0.19-0.14-0.43-0.19-0.7l0.02-0.02l-0.04-0.01
							L1296.12,218.74z"/>
					</g>
				</g>
			</g>
			<g>
				<g>
					<g>
						<path class="st1" d="M1690.25,282.24c0.31,2.03,1.07,0.87,0.81-4.69l-1.29-3.93L1690.25,282.24z"/>
						<path class="st1" d="M1690.77,244.68c-0.62-3.24-1.31-6.72-2.05-8.83c-0.77-2.1-1.41-2.85-1.68-0.69
							c0.54,1.56,0.82,2.85,1.07,3.99c0.25,1.15,0.44,2.15,0.63,3.17c0.39,2.05,0.82,4.15,1.85,7.57c0.56,5.56,0.18,9.75-0.3,8.83
							c0.41,1.96,0.27,8.65,1,11.63c0.47-3.65,0.42-7.77,0.22-12.18c-0.11-2.21-0.27-4.48-0.49-6.8c-0.3-2.31-0.68-4.67-1.09-7.04
							C1690,242.27,1690.5,244.23,1690.77,244.68z"/>
						<path class="st1" d="M1261.19,26.76l3.52,0.14C1263.75,26.82,1262.55,26.78,1261.19,26.76z"/>
						<path class="st1" d="M1100.42,240.52c0.39-2.55,0.44-3.63,0.36-3.78C1100.47,239.12,1100.22,241.07,1100.42,240.52z"/>
						<path class="st1" d="M1089.71,297.38c0.23-1.22,0.43-2.25,0.63-3.35C1090.02,295.3,1089.75,296.58,1089.71,297.38z"/>
						<path class="st1" d="M1261.19,26.76l-9.05-0.38C1251.51,26.77,1256.78,26.67,1261.19,26.76z"/>
						<path class="st1" d="M1672.13,172.27c0.66,1.75,1.28,3.18,1.88,4.48c-0.54-1.44-1.07-2.83-1.61-4.27
							C1672.31,172.43,1672.24,172.38,1672.13,172.27z"/>
						<path class="st1" d="M1410.55,25.77l2.75,0c0.81-0.14,1.57-0.31,2.29-0.5L1410.55,25.77z"/>
						<path class="st1" d="M1524.83,38.55c-1.25-0.38-2.16-0.38-2.9-0.27c-0.74,0.13-1.29,0.39-1.84,0.49
							c1.54-0.11,3.44,0.27,5.67,0.81C1525.86,39.41,1525.59,39.08,1524.83,38.55z"/>
						<path class="st1" d="M1665.72,147.18l1.52,2.86C1666.84,149.3,1666.17,148.04,1665.72,147.18z"/>
						<path class="st1" d="M1328.51,25.54c-0.19-0.15-0.6-0.29-1.04-0.37C1327.46,25.3,1327.87,25.43,1328.51,25.54z"/>
						<path class="st1" d="M1669.27,411.75c0.04,0.11,0.13,0,0.18,0.05C1669.54,411.14,1669.53,410.92,1669.27,411.75z"/>
						<path class="st1" d="M1692.97,282.24l0.03,1.84c0.19,0.2,0.38,0.4,0.57,0.4L1692.97,282.24z"/>
						<path class="st1" d="M1071.23,401.63c0.04-0.2,0.06-0.27,0.1-0.46C1071.66,398.4,1071.42,399.96,1071.23,401.63z"/>
						<path class="st1" d="M1184.57,895.32c-2.7,10.71,1.74-17.87-1.97-1.68C1183.25,892.18,1181.74,908.77,1184.57,895.32z"/>
						<path class="st1" d="M1671.19,169.5c-0.58-1.41-1.17-2.85-1.76-4.29C1670.2,167.18,1670.74,168.49,1671.19,169.5z"/>
						<path class="st1" d="M1182.6,893.64L1182.6,893.64l-0.38,1.67C1182.37,894.62,1182.46,894.23,1182.6,893.64z"/>
						<path class="st1" d="M1032.27,642.42c0.26-0.46,0.56-1.4,0.85-2.38C1033.01,640.1,1032.79,640.63,1032.27,642.42z"/>
						<path class="st1" d="M1063.2,463.35l-0.87,4.41C1062.72,466.02,1062.99,464.59,1063.2,463.35z"/>
						<path class="st1" d="M1018.41,735.75c-0.47,2.4-0.75,3.2-1.16,6.51c0.1-0.3,0.19-0.59,0.29-0.98
							C1017.6,740.07,1017.8,738.47,1018.41,735.75z"/>
						<path class="st1" d="M1002.49,832.65c0.16-0.5,0.33-1.17,0.5-1.75c0.14-0.96,0.31-2.09,0.45-3.08L1002.49,832.65z"/>
						<path class="st1" d="M1502.73,636.26c-0.51-2.11-0.69-3.47-0.78-4.56C1501.81,633.37,1496.34,620.02,1502.73,636.26z"/>
						<path class="st1" d="M1672.65,172.02c-0.41-0.45-0.85-1.17-1.46-2.53c0.43,1.03,0.87,2,1.21,2.99
							C1672.64,172.7,1672.79,172.71,1672.65,172.02z"/>
						<path class="st1" d="M1025.82,741.02l-2.68,15.37C1023.95,752.1,1024.92,746.51,1025.82,741.02z"/>
						<path class="st1" d="M1437.71,972.95l1.34,3.32C1438.6,974.96,1438.14,973.78,1437.71,972.95z"/>
						<path class="st1" d="M1015.78,802.1c-0.81,2.69-1.5,5.57-2.13,8.55c-0.03,0.65-0.08,1.39-0.03,1.83L1015.78,802.1z"/>
						<path class="st1" d="M1501.95,631.66c0.01,0.03,0,0.04,0,0.04S1501.95,631.69,1501.95,631.66z"/>
						<path class="st1" d="M1563.21,563.55c-5.77,4.47-6.9,5.81-6.89,6.3c0.03,0.51,1.3,0.26,0.27,1.48c-7,5.28-8.77,6.3-9.5,6.28
							c-0.7,0.01-0.29-0.9-2.95,0.46c-2.21,1.59-4.27,3.14-6.21,4.64c-1.98,1.45-3.86,2.83-5.67,4.15
							c-1.82,1.31-3.54,2.63-5.32,3.77c-1.77,1.14-3.52,2.22-5.3,3.22c-0.64,0.11-2.06,0.82-0.58-0.34
							c-1.19,0.83-2.54,1.74-4.04,2.65c-1.52,0.89-3.17,1.81-4.91,2.77c-1.74,0.96-3.57,1.95-5.47,2.95
							c-1.92,0.94-3.89,1.91-5.88,2.88c-1.65,0.8-3.31,1.61-4.96,2.42l-2.48,1.21l-0.62,0.3c-0.04,0.03-0.13,0.04-0.12,0.09
							l0.06,0.16l0.13,0.32l0.51,1.28c0.68,1.7,1.35,3.39,2.02,5.07c0.5,1.22,0.99,2.42,1.48,3.61c1.65,3.93,3.28,7.59,4.83,10.65
							c0.26,0.99,0.33,1.51,0.33,1.78c-0.17-2.31,0.36-2.87,0.98-2.63c2.44,6.2,5.29,11.21,5.37,13.87c-1.46-3.82-1.91-4-2.87-5.68
							l2.89,6.37c1.09,6.32-3.87-8.72-4.75-8.38c5.32,12.54,12.07,26.95,15.51,36.8c-0.38,2.49-9.24-22.59-5.23-9.21l-5.41-15.22
							c2.63,12.21-3.43-9.19-1.29,2.14c7.37,19.93,9.21,21.92,16.56,41.8c2.38,4.2,0.39-1.84,2.77,2.35
							c12.09,27.62,5.67,23.24,15.25,43.28c2.86,5.04,5.14,6.54,10.07,21.54l-3.27-4.5c7.33,19.22,6.15,10.21,13.08,30.63
							c-1.91-3.37-6.3-14.9-5.33-11.94c4.02,13.41,4.33,8.91,8.22,18.91l-0.36,2.53c8.12,20.34,17.71,42.49,26.72,65.02
							c-0.83-1.12-2.71-4.85-1.01,0.58c11.68,28.28,23.54,60.92,33.54,88.69l5.1,10.11c0.94,2.45,1.31,4.71,0.08,2.14
							c3.79,10.87,0.86,0.31,3.26,5.3c2.44,6.07,2.56,8.28,0.75,4.53c3.72,8.42,8.75,20.12,13.76,32.28c2.5,6.08,5,12.28,7.32,18.23
							c1.15,2.95,2.3,5.95,3.31,8.66c0.44,1.25,0.83,2.4,1.11,3.35c-1.08-0.07-2.01-0.16-2.78-0.27c0.47-0.11,0.86-0.21,1.18-0.32
							c-0.7-0.05-1.24-0.06-1.75-0.03l-0.19,0.01c-0.18,0.01-0.36,0.01-0.54,0.02c-0.4,0.01-0.79,0.03-1.17,0.04
							c-0.76,0.04-1.49,0.08-2.18,0.11c-2.78,0.17-5.09,0.43-7.37,0.67c-4.55,0.48-8.94,0.89-16.66,0.39l2.96-0.19
							c-36.14-0.47-76.07,0.52-103.64-1.11c-5.24,1.56-35.77-0.69-38.09,1.48c-8.34-0.44-12.34-0.76-16.18-1.04
							c-1.92-0.14-3.8-0.27-6.15-0.39c-1.18-0.06-2.48-0.12-3.96-0.19c-0.19-0.01-0.37-0.02-0.57-0.02l-0.29-0.01
							c-0.09,0-0.07-0.01-0.11-0.01c-0.1-0.02-0.2-0.03-0.31-0.05c-0.2-0.03-0.4-0.06-0.63-0.09c-0.03-0.16-0.07-0.35-0.11-0.57
							c-0.02-0.1-0.04-0.2-0.06-0.31l-0.02-0.08c0-0.02,0-0.03-0.06-0.19c-0.08-0.24-0.16-0.48-0.24-0.73
							c-0.66-1.98-1.44-4.32-2.33-6.96c-2.56-7.32-5.24-10.4-8.74-19.34l0.99-0.61l-5.58-11.83l-1.1-6.98l-3.36-8.36
							c1.17,3.39,2.13,7.33,1.64,6.93c-2.65-6.52-5.4-14.63-7.43-21.19c-2.03-6.55-3.35-11.54-3.14-11.81l-12.3-30.92
							c0.68,0.54,2.74,5.72,4.52,9.75c-7.17-16.28,0.02-3.44-6.55-18.36c0.5,2.14-1.04-0.88-1.38-1.14
							c-2.13-7.86-8.45-25.2-13.4-37.93l1.63,2.19c-8.26-23.24-18.17-48.73-27.64-74.75c3.06,9.46,1,7.78-1.9,0.19l0.01-3.46
							c-2.49-4.67,2.48,8.12-2.06-1.68c-3.41-9.76-1.1-7,1.3-1.55l-4.7-11.67c0.08-0.82,1.27,1.89,1.96,2.45
							c-2.47-4.59-6.3-20.8-10.07-27.35l0.09-0.79c-9.47-26-14.16-37.66-21.94-58.82c-1.12-0.06-3.93-8.42-7.02-14.45
							c-0.86-2.55-1.74-5.15-2.64-7.8c-0.44-1.33-0.89-2.67-1.35-4.02c-0.75-2.18-1.51-4.38-2.28-6.6
							c-2.36-0.04-4.75-0.08-7.15-0.13c-1.51-0.04-3.04-0.08-4.58-0.12c-3.08-0.07-6.21-0.14-9.39-0.21
							c-6.36-0.12-12.91-0.2-19.65-0.17c-14.03,0.52-4.1,0.88-10.41,1.49c-1.03-0.94-20.97-0.86-10.63-1.53
							c-9.05,0.07-15.63,0.12-22.26,0.17c-7.62,0.1-15.29,0.2-25.93,0.34c-0.29,2.02-0.76,5.31-1.37,9.5
							c-0.38,2.73-0.84,6.06-1.35,9.73c0.92-3.18,1.68-6.8,1.69-4.86c-0.74,5.45-2.42,12.28-2.74,11.43l0.14-1.45
							c-4.13,33.79-15.47,77.01-17.93,104.06l0.15-1.51l-3.55,27.88c-2.26,12.72,0.56-7.76-1.57,1.58
							c-3.37,30.15-8,47.2-11.02,71.99c-5.88,18.6-10.94,67.66-16.93,93.09l0.89-1.38c-0.46,6.75-1.69,7.98-2.65,12.86
							c0.62-0.61,1.77-7.12,1.44-2.93c-1.06,7.03-2.17,14.12-3.31,21.24c-0.58,3.56-1.16,7.13-1.75,10.71
							c-0.4,2.4-0.81,4.81-1.22,7.22c-9.79-0.09-19.66-0.19-29.56-0.28c-11.1-0.16-22.24-0.32-33.38-0.48
							c-22.28-0.35-44.56-0.74-66.52-0.96c-21.4-0.18-12.15,3.39-39.13,1.83l7.66-1.22c-3.39,0.1-6.8,0.19-10.21,0.29l-2.56,0.06
							l-0.64,0.01c-0.12,0-0.09,0.01-0.15,0.01l-0.22,0.03l-0.98,0.09c0.03-0.38,0.07-0.81,0.12-1.27c0.35-2.25,0.7-4.5,1.05-6.76
							c0.73-4.56,1.47-9.13,2.2-13.71c1.51-9.14,3.03-18.29,4.54-27.4c3.02-18.22,5.96-36.31,8.34-53.98
							c-0.13,2.53,0.22,2.66-0.46,6.73c2.32-8.67,5.4-32.58,4.71-32.85c1.15-6.48,0.89-1.4,1.91-5.34
							c1.97-8.76,2.53-22.37,4.17-26.92c0.27-0.78-0.13,2.53-0.32,4.16c0.52-5.83,4.52-26.82,2.61-21.47
							c3.05-15.58,4.48-30.03,7.13-42.42c0.21-8.33,4.95-26.72,3.78-29.56c1.46,1.39,5.84-27.23,6.69-37.26
							c-0.05,3.4,1.93-8.52,1.98-4.53c1.83-11.3,3.23-21.71,2.06-19.88c5.39-20.49,5.3-42.1,9.74-53.41
							c4.63-33.71,9.14-64.87,13.72-95.12c1.46,1.36-5.32,33.4-3.39,32.39c4.03-28.75,5.34-45.51,10.41-73.84
							c1.43-7.32,0.02,4.29-0.1,6.82c4.03-28.72,9.24-55.3,12.54-80.91c0.14,0.1-0.14,2.87-0.45,5.49
							c0.77-5.03,2.16-11.63,1.32-11.19l-0.6,4.92c-2.4,7.83,1.02-20.3,0.59-21.29c0.74,8.87,4.67-25.06,5.15-11.09
							c0.4-3.33,0.73-7.53,0.11-6.85c0.95-4.88,1.5-6.38,1.25-1.32c2.55-18.04,0.71-11.78,3.4-28.07c0.35,0.12-0.05,3.43,0.1,5.18
							c0.65-8.36,1.31-16.76,3.88-30.47c0.08,0.86,0.63-0.69-0.05,3.42c3.78-23.65,4.75-40.59,9.69-66.41
							c0.31,7.91,1.97-8.73,3.55-9.89l1.89-14.01l-1.58,5.49c2.03-12.21,2.82-23.16,4.99-33.59l-0.93,9.17l3.51-22.93l-2.64,12.87
							c1.33-12.47-1.93,1.04,1.12-15.15c-0.41,3.33,2.03-12.21,3.87-18.45l0,0.04c0.56-6.11,1.13-12.4,2.95-21.38
							c0.82-2.28,1.19,2.13,1.73,0.65c-0.15-6.15,4.39-28.65,4.42-36.4c-0.13,2.56,0.56,2.81,0.84,2.01l-0.1-5.15
							c1.22-5.61,1.5-6.41,1.92-5.4c2.97-16.99-2.61,5.12,1.45-14.95c-0.19,1.6,0.08,0.86-0.33,4.19
							c3.72-20.22,5.86-39.29,9.38-57.85c2.27-5.28-2.34,16.34-0.16,10.23c1.47-9.52,2.85-19.3,4.2-29.11
							c1.29-9.24,2.59-18.51,3.86-27.61c1.46-0.03,2.91-0.05,4.35-0.08c2.01-0.02,4-0.03,5.99-0.05c3.97-0.02,7.89-0.01,11.74,0.04
							l-4.91-0.15c3.65-1.95,19.63,0.96,32.96,0.04c-3.26,0.15-4.28,1.08-3.4,0.87c18.05,0.31,36.9-0.48,64.25-1.1l-3.39,0.5
							c10.64,0.45,28.01,0.26,39.5,0.49c3.41-0.5,9.98-0.42,5.99-1.15c35.43,2.86,67.58-1.53,99.01,0.85
							c-3.76,0.01-8.96,0.44-5.97,0.44l26.77-0.46c-2.12-0.85-3.51-0.52-9.13-1.18c3.39-0.48,10.95-0.94,17.58-0.85
							c-12.04,0.45,0.11,1.34,5.27,1.92c-0.87-0.27,0.92-0.53,0.48-0.81c6.96,0.86,7.55,0.44,8.79,0.02
							c1.23-0.43,3.12-0.9,12.63,0.06l-1.03,0.4c0.89,0.01,1.78,0.02,2.66,0.02c0.88,0.03,1.75,0.06,2.62,0.09
							c1.74,0.05,3.47,0.11,5.22,0.16c3.5,0.15,7.08,0.22,10.89,0.79c1.53,0.67-0.37,0.57-2.72,0.39c-2.35-0.15-5.17-0.27-5.45,0.1
							c10.73,0.85,21.42,0.44,30.93,2.99c-2.29-0.22-5.06-0.57-7.84-0.93c-1.39-0.17-2.77-0.37-4.1-0.51
							c-1.33-0.11-2.6-0.21-3.75-0.27c2.61,0.58,4.64,1.02,6.32,1.45c1.69,0.4,3.06,0.69,4.35,0.94c2.57,0.51,4.84,0.77,8.7,1.55
							l-0.76-0.17l8.88,2l4.44,1l4.39,1.18l-4.44-1.38c6.81,0.34,13.59,1.66,20.73,3.83c1.79,0.51,3.62,1.03,5.49,1.57
							c1.85,0.59,3.74,1.2,5.69,1.83c1.95,0.61,3.95,1.21,6.03,1.79c2.08,0.57,4.16,1.31,6.37,1.91c-2.14-0.6-3.78-1.07-5.03-1.42
							c-1.26-0.3-2.14-0.46-2.7-0.56c-1.12-0.19-1.02-0.05-0.43,0.24c0.59,0.29,1.67,0.72,2.5,1.13c0.82,0.43,1.37,0.84,0.97,0.98
							c4.2,1.97,10.6,4.83,8.62,4.39c2.09,0.52,3.87,1.32,5.63,2.09c1.75,0.79,3.44,1.63,5.24,2.5c0.89,0.44,1.83,0.86,2.78,1.35
							c0.95,0.5,1.94,1.01,3,1.52c2.12,1.03,4.51,2.08,7.34,3.16c0.32,0.53,7.88,4.58,5.77,4.39c9.71,5.29-1.94-1.84-0.92-1.77
							c1.93,0.94,3.91,1.98,5.94,3.1c1.99,1.18,3.99,2.53,6.05,3.9c4.19,2.65,8.26,6.01,12.6,9.37c1.1,0.82,2.13,1.75,3.19,2.66
							c1.06,0.91,2.13,1.84,3.21,2.77c1.09,0.92,2.18,1.85,3.28,2.79c1.1,0.94,2.13,1.97,3.21,2.96c1.08,0.99,2.17,1.98,3.27,2.99
							c0.55,0.49,1.11,0.99,1.67,1.49c0.56,0.49,1.13,0.99,1.65,1.53c2.13,2.12,4.32,4.22,6.59,6.31c0.97,0.91,1.8,1.85,2.59,2.74
							c0.8,0.89,1.57,1.73,2.3,2.54c1.48,1.6,2.82,3.05,4.07,4.39c2.34,2.82,4.35,5.19,6.35,7.53c0.49,0.59,1.01,1.16,1.48,1.77
							c0.46,0.62,0.92,1.24,1.39,1.87c0.93,1.27,1.9,2.59,2.93,4c0.51,0.71,1.04,1.45,1.59,2.22c0.55,0.77,1.13,1.57,1.64,2.45
							c1.06,1.76,2.21,3.68,3.5,5.81c1.37,3.08,0.41,2.02-0.88,0.21c-1.29-1.81-2.92-4.38-2.92-4.38c1.19,2.42,2.33,4.68,3.45,6.83
							c0.28,0.54,0.56,1.07,0.84,1.6c0.27,0.53,0.5,1.08,0.75,1.61c0.5,1.07,1,2.12,1.49,3.17c1,2.09,2.02,4.15,3.09,6.25
							c0.97,2.15,1.95,4.35,2.99,6.66c-1.07-1.79-0.51,0.28,0.28,3.28c0.41,0.93,0.75,1.71,1.04,2.37c0.27,0.67,0.52,1.22,0.75,1.7
							c0.46,0.96,0.84,1.63,1.23,2.39c0.76,1.52,1.66,3.35,3.05,8.54c-0.88-1.66-2.33-3.67-3.96-7.24c0.87,2.23,1.74,4.44,2.61,6.66
							c0.77,2.26,1.55,4.52,2.32,6.79c0.39,1.14,0.78,2.28,1.17,3.42c0.39,1.14,0.8,2.29,1.1,3.47c0.65,2.35,1.3,4.72,1.96,7.11
							c-0.03,2.7-2.25-5.63-3.5-8.9c3.07,10.68,6.64,28.06,7.86,31.38l-0.31-3.58c-0.09-1.2-0.3-2.38-0.44-3.57
							c0.79,4.01-0.46,2.2-1.18-0.72c-1.26-4.63-1.76-8.04-2-10.36c-0.3-2.3-0.21-3.55-0.1-3.85l0.92,3.43
							c0.32,1.14,0.52,2.31,0.79,3.46c0.08-0.94,0.1-2.1-0.05-3.41c-0.16-1.3-0.43-2.76-0.76-4.35s-0.74-3.3-1.2-5.1
							c-0.45-1.8-0.95-3.68-1.62-5.58c-0.64-1.9-1.3-3.85-1.96-5.82c-0.33-0.98-0.67-1.96-1-2.94l-0.5-1.47l-0.57-1.44
							c-1.52-3.83-2.91-7.57-4.08-10.93c1.16,1.68,2.26,3.39,3.4,5.11l-1.5-3.37l-0.75-1.68l-0.84-1.64l-3.35-6.55
							c-0.8-3.03-0.84-5.38,2.05,1.1c-0.81-2.45-1.41-4.21-2.03-5.56c-0.64-1.33-1.17-2.29-1.68-3.21c-1.02-1.84-1.93-3.52-3.48-7.7
							c-0.36-0.91-0.07-0.57,0.41,0.21l-5.26-8.61c1.23,1.57,0.12-2.01,2.93,3.53c-1-2.04-1.99-3.96-2.96-5.78
							c-1.04-1.77-2.12-3.4-3.12-4.96c-2.03-3.1-3.87-5.85-5.78-8.11c-1.84-2.31-3.46-4.34-4.82-6.17
							c-1.39-1.81-2.64-3.34-3.49-4.85l1.04,1.11c-2.07-2.38-3.65-4.18-4.87-5.54c-1.22-1.35-2.2-2.16-2.82-2.74
							c-1.28-1.13-1.48-1.1-1.55-0.9c-0.08,0.19-0.04,0.55-0.85,0.06c-0.4-0.24-1.02-0.7-1.96-1.49c-0.47-0.39-1.03-0.87-1.68-1.45
							c-0.66-0.57-1.38-1.27-2.31-1.98l-3.67-5.29c-1.25-1.76-2.44-3.61-3.81-5.27l-2.63-0.71c-1.97-1.68-5.87-5-4.86-4.75
							c-8.18-5.17,1.04,1.34-3.89-1.41c-1.17-1.02-2.49-2.1-3.9-3.21c-1.42-1.09-2.88-2.3-4.5-3.33c-3.21-2.11-6.53-4.32-9.68-6.23
							c-3.2-1.84-6.12-3.54-8.34-4.97c-1.1-0.74-2.07-1.33-2.8-1.85c-0.73-0.52-1.23-0.97-1.44-1.33
							c-4.37-1.28,10.28,6.01-1.81,0.48c-0.62-0.86-1.8-1.71-3.37-2.59c-0.78-0.44-1.67-0.89-2.62-1.35
							c-0.97-0.44-2.04-0.85-3.15-1.29c-2.23-0.88-4.69-1.83-7.21-2.89c-0.63-0.27-1.27-0.54-1.91-0.81
							c-0.65-0.26-1.3-0.52-1.96-0.78c-1.3-0.54-2.61-1.11-3.89-1.73c1.8,0.18,5.19,1.34,6.81,1.9c0.8,0.3,1.18,0.42,0.72,0.11
							c-0.45-0.33-1.75-1-4.34-2.23c-3.54-0.44-8.6-2.68-14.15-4.69c-2.76-1.04-5.56-2.25-8.31-3.17c-2.75-0.91-5.4-1.73-7.73-2.32
							c-0.73,0.95-20.37-4.81-36.38-6.83c0.27-0.07-1.46-0.44-4.44-1c-1.49-0.27-3.29-0.59-5.31-0.96
							c-2.03-0.28-4.28-0.59-6.65-0.92c-2.38-0.32-4.87-0.66-7.4-1.01c-2.53-0.29-5.1-0.52-7.61-0.78c-2.5-0.26-4.94-0.51-7.22-0.74
							c-2.28-0.23-4.41-0.34-6.28-0.5l0.45-0.2c-1.49,0.62-6.08,0.64-11.71,0.56c-5.63,0.07-12.31-0.08-17.91,0.05
							c0.44-0.82,2.45-1.14,8.56-1.4c-3.53-0.06-7.06-0.11-10.57-0.09c-2.49,0.43-5.78,0.66-12.61,0.82l2.65-1.01
							c-14.03,0.06-28.25,1.19-46.3,0.52c-1.02,0.94,14.36,2.63-4.73,3.26c-0.71-0.51-1.41-1.38,3.58-1.59
							c-1.64,0.07-5.83,0.42-9.13,0.21l7.62-0.86c-8.22-0.38-4.3,0.72-10.87,0.64c0.13-0.73-4.86-0.52-3.92-1.1
							c1.68-0.07,5.73,0.3,8.25,0.02c-7.41-0.13-16.37-0.56-19.33-1.11c0.65,0.41,0,0.98-5.43,1.07c-14.03,0.05-4.8-0.87-12.98-1.25
							c-3.4,0.51-12.35-0.02-12.58,1.07c-4.11-0.01-4.87-0.51-6.45-0.81c-7.26,0.48-33.91,0.14-25.73,1.29l1.86,0.08
							c-0.35,0.01-0.76,0.03-1.19,0.05c0.06,0,0,0,0.06,0h-0.06c-23.8,1.08-49.43-0.62-73.05-0.15l0.04-0.36
							c-14.1,0.42-31.37,0.25-41.44,1.03c-4.17,0-9.84-0.66-8.06-1.1c-2.97,0.08-5.37,0.14-7.35,0.19c-0.28,2-0.52,3.78-0.77,5.56
							c-0.11,0.75-0.22,1.5-0.33,2.28c-0.11,0.71-0.22,1.44-0.34,2.21c-0.5,3.1-1.21,6.93-2.43,12.89
							c1.13-10.79-1.16,3.6,1.34-11.03c-2.58,13.76-3.67,16.8-5.13,31.79c-0.09-5.2-2.87,10.21-3.67,16.82l2.25-9.57
							c-1.08,7.41-2.22,13.85-3.38,20.39l-0.63-3.75c-6.12,28.03-5.88,51.39-11.88,72.51c-0.38,7.62,3.12-15.26,3.01-8.41
							c-2.3,12.98-6.26,26.24-6.94,30.31c-3.6,17.7-0.97,16.91-4.49,35.47c0.82-2.31,2.34-4.37,0.46,9.62
							c-2.3,12.99-4.44,15.7-3.43,7.43c0.48-3.13,0.86-4.61,0.99-4.45c0.53-4.23,1.26-9.78-0.06-4.7l0.15,1.76
							c-1.5,6.38-4.4,24.29-4.42,19.97c-1.2,9.9,0.02,4.32,1.44-2.93c-3.37,16.59-4.31,26.07-7.55,43.18
							c0.69-2.69,1.61-5.13,1.16-2.41c-4.68,25.11-1.01,11.23-3.62,28.34c-2.25,9.59-1-3.73-3.27,13.54
							c-2.17,10.42-1.51,2.03-1.18-2.2c-1.74,15.8-5.36,29.17-6.98,38.09l1.01-8.31c-0.6,4.97-1.27,9.01-1.95,13.12l1.64-4.57
							c-0.95,4.82-1.62,8.92-1.97,8.77c-0.26,5.08,2.06-3.58,1.21,6.45c-1.5,6.38-2.76,19.74-4.27,21.78
							c3.73-20.24-1.52,2.05,1.12-15.16c-0.41,3.34-1.08,7.38-2.03,12.21c-0.25,0.71-0.12-0.73,0.03-2.06
							c-4.22,19.26-0.17,9.14-3.51,29.28c-0.22-2.66-1.99,4.47-2.39,7.78c1.35-8.11,1.71-3.7,0.98,3.82
							c-2.63,12.83-1.93,14.09-3.1,20.85l1.5-7.68c0.22,2.72-0.93,9.16-2.21,18.2c-0.63,0.69,1-8.23,0.25-5.06
							c-0.51,10.18-4.89,22.39-6.41,36.45c-1.5,6.38-1.31,0.43-2.54,6.05c-1.73,15.76-3.66,16.77-5.67,33.3
							c1.64-4.59,1.57-5.45,0.51,6.25l3.83-27.09l-1.59,17.53c1.35-8.14,2.28-17.28,3.23-22.13c-0.65,8.37-0.73,7.48,0.64,3.7
							c-3.13,10.93-2.87,22.22-5.87,34.96l-2.08-0.75c-4.14,19.21-4.55,34.59-9.23,59.65l1.7-8.02c0.3,3.51-2.43,15.55-3.43,23.75
							c-0.59-0.88-1.69,4.17-2.71,7.57c0.6-0.33-3.07,18.4-2.02,20.92l-2.79,11.07c-3.73,20.24-1.77,23.51-5.22,42.99
							c0.19-6.01-1.78,2.78-0.19-10.39c-1.08,6.52-2.17,12.36-1.69,12.54c-1.07,3.73-2,18.23-3.67,24.11
							c-0.14,2.8,0.47,3.82-0.8,11.13c-0.28,0.77-0.35-0.09-0.35-0.09c0.35,0.09-1.4,11.53,0.45,5.27
							c-5.54,19.71-9.06,56.14-13.86,73.3c-2.1,14.26-4.68,31.44-6.75,44.36c-0.08-0.86-0.35-0.1,0.13-2.53
							c-3.6,17.7,0.26,11.29-3.82,31.44c-2.86,10.16,1.14-10.87-0.36-4.48c-2.82,2.42-3.7,24.52-7.32,37.93l0.4-3.33
							c-2.52,10.29-3.29,25.59-6.26,42.59c0,0-0.07-0.86-0.34-0.16c-0.71,11.85-3.94,33.97-6.3,50.41
							c-0.09-5.25,0.74-7.53-0.72-4.57c-0.54,3.68-0.07,3.21,0.26,3.65c0.32,0.52,0.58,1.48-0.67,9.9c-0.1,0.41-0.21,0.85-0.36,1.51
							c1.31,0.12,3,0.23,4.89,0.36c0.97,0.06,1.96,0.13,2.95,0.19c0.83,0.07,1.66,0.14,2.46,0.21c3.13,0.29,5.81,0.64,6.47,1.11
							l-16.53,0.05c1.17,0.16,2.55,0.29,4.05,0.38c0.76,0.04,1.54,0.07,2.34,0.11c0.69,0.02,1.39,0.04,2.11,0.07
							c2.15,0.06,4.43,0.02,6.71-0.05c4.56-0.15,9.15-0.43,12.84-0.32l-0.94,0.57c21.48-0.19,21.78-1.63,44.87-1.53l-2.39-0.43
							c12.62-1.43,10.58,0.81,23.16-0.26l3.81,1.45c8.33-0.35,29.16-1.41,44.09-1.68c-8.46,1.08-25.93,1.63-36.74,2.27
							c8.25,0.01,28.05-0.11,32.34-0.82c-3.33,0.14-7.52,0.5-10.8,0.27c10.12-1.14,23.44-1.71,39.89-1.68
							c-0.7,0.68,1.42,1.07,5.22,1.31c1.9,0.12,4.22,0.2,6.81,0.25c1.4,0.02,2.87,0.04,4.39,0.07c2.09,0.01,4.25,0.03,6.47,0.05
							c0.67-3.93,1.38-8.05,2.08-12.14c0.57-3.29,1.15-6.54,1.73-9.59c1.16-6.09,2.3-11.34,3.36-14.3
							c3.7-28.87,9.82-56.87,15.16-90.34c-4.12,11.5,1.55-9.77-1.01-8.09c1.14-7.81,1.67-10.78,1.92-11.45l5.21-23.39
							c1.57-5.49-0.73,7.49-0.11,6.85c2.98-17.03,2.12-7,4.57-18.19c-1.18,2.18-0.16-6.12,1.74-15.79l-3.28,13.52
							c2.74-24.03,5.26-20.29,8.04-44.51l-0.55,7.71c1.62-12.4,7.5-45.47,7.71-57.85c0.62-2.14,1.7-4.92,0.96,0.53
							c5.12-29.42,8.9-65.89,13.77-88.61l0.17,2.32c0.1-0.74,0.18-1.45,0.26-2.16c0.03-0.35,0.07-0.7,0.1-1.04
							c0.01-0.11,0.01-0.12,0.01-0.15l-0.01-0.08l-0.01-0.16c-0.04-0.42-0.07-0.92-0.06-1.48c0.35-0.07,0.79-0.12,1.29-0.12
							c0.43,0.01,0.89,0.03,1.36,0.04c0.74,0.03,1.51,0.07,2.32,0.14c-0.36,0.23-2.24,0.55,0.34,0.58
							c2.95-0.19,14.8-0.97,22.18-0.64l-6.31,0.62c29.12,0.72,44.7-1.51,69.12-1.89c-0.01,0.36,1.08,0.66,2.92,0.92
							c0.92,0.13,2.04,0.25,3.28,0.36c0.36,0.09,0.77,0.19,1.2,0.3c0.05,0.28,0.1,0.58,0.15,0.88l0.03,0.2
							c0.02,0.08-0.01,0.05,0.1,0.38c0.15,0.49,0.31,0.99,0.47,1.48c0.64,1.99,1.31,4.04,1.96,6.06c1.35,4.03,2.66,7.93,3.68,10.97
							l-0.35-0.3c11.43,31.93,21,53.66,32.35,82.94c5.02,18.92,21.93,62.29,31.74,92.06c-1.36-4.6,1.45,0.3,3.52,5.48
							c2.21,7.02,8.02,18.71,6.22,18.12l-0.87-2.47c0.53,5.7,6.07,19.77,10.07,30.87l2.49,1.16c7.91,29.96,28.68,75.61,32.07,92.3
							c3.01,6.83,6.16,15.5,9.15,22.27l-1.12-0.02c1.05,2.96,2.05,5.78,2.69,7.57c10.19,0.08,18.31,0.14,27.19,0.21
							c7.79,0.02,16.26-0.01,27.87-0.13l-5.2,0.75c14.39,0.07,18.16-3.01,31.43-3.07l3.99,1.56c25.1-0.02,50.5,1.34,75.3-0.07
							c-0.41,0.23-1.15,0.68-5.21,0.74c11.81,0.04,45.7,1.05,41.41-1.08c0.07,0.33,1.52,0.51,3.89,0.58
							c0.35,0.01,0.73,0.02,1.12,0.02c0.56,0,1.14,0.01,1.74,0.02c1.2,0,2.49,0,3.85,0.01c2.69-0.02,5.67-0.05,8.83-0.08
							c-1.35-3.31-2.8-6.85-4.29-10.47c-0.37-0.88-0.73-1.77-1.1-2.66l-0.44-1.04l-0.35-0.8c-0.46-1.06-0.93-2.12-1.39-3.18
							c-1.86-4.21-3.66-8.3-5.12-11.6l1.72,1.59c-5.37-10.19-5.84-10.4-11.97-25.15c-1.25-3.58-0.44-3.39,1.14,1.39
							c-4.07-11.95-4.47-8.81-9.51-23.26l2.68,5.07c-4.63-12.13-4.59-11.04-7.89-17.42c-3.34-7.46-8.69-23.04-8.52-25.16
							c-1.16-1.42-4.44-7.78-6.97-15c-0.05-1.09,1.17,1.43,1.77,2.69c-7.22-20.48-12.81-29.64-17.29-43.92
							c0.2-0.41,0.01-1.38-0.34-2.57c6.23,16.08,11.21,29.04,10.67,27.85c0.88-0.34-4.01-13.38,1.22-3.53
							c-4.72-10.16-13.09-27.42-17.6-40.23c-0.15-0.65-0.3-1.28-0.35-1.79l0.61,1.27c-1.05-2.95-2.15-5.54-3.25-7.94
							c-1.43-4.09-2.32-6.7-3.81-10.58c0.15-1.78-5.4-15.04-7.88-21.52c-0.76,0.91-3.9-7.62-1.61,0.62
							c-0.33-1.05,0.59,1.18,2.31,5.47c0.41,0.96,0.87,2.1,1.17,2.72c-0.07-0.12-0.16-0.26-0.26-0.41
							c1.67,4.24,3.85,9.78,6.32,16.06c-2.48-4.92-4.97-10.1-7.22-17.47c-1.91-3.08-3.97-6.49-5.07-8.43
							c-2.1-9.38-8.01-26.74-8.11-29.44c-8.23-19.55-18.47-46.42-25.12-58.14c-2.42-5.53-1.99-6.66-2.53-8.87
							c1.44,3.17,2.92,7.04,3.86,8.7c-4.84-11.05-13.13-33.22-15.44-35.4c-4.94-14.38,4.26,7.5-3.52-11.87l1.41,2.48
							c-6.43-19.53-13.29-34.78-20.29-50.57c-1.73-3.95-3.48-7.94-5.26-12.02c-0.68-1.56-1.37-3.15-2.07-4.75
							c-0.1-0.12,0.07-0.13,0.14-0.19l0.26-0.14l0.53-0.28l1.08-0.56c0.86-0.43,1.72-0.87,2.59-1.3
							c8.54-4.17,17.55-8.89,27.79-14.08c-2.81,1.49-4.25,2.16-4.92,2.3c11.44-6.28,22.65-13.43,33.34-21.45
							c10.67-8.04,20.86-16.84,30.48-26.19l3.58-3.53c1.19-1.18,2.4-2.34,3.53-3.57c2.3-2.43,4.6-4.86,6.89-7.29
							c2.21-2.5,4.42-5,6.63-7.49c1.12-1.23,2.18-2.51,3.24-3.79l3.18-3.83c8.4-10.25,16.31-20.73,23.68-31.35
							c2.08-3.03,3.5-5.51,4.71-7.54c1.17-2.05,2.1-3.66,2.79-5.19c1.4-3.06,2.33-5.56,4.18-9.63c0.85-0.74,1.63-1.54,2.44-2.31
							c1.87-4.78,3.86-9.48,5.48-14.34c1-2.52,2.04-4.91,3.07-7.25c0.96-2.37,1.95-4.66,2.96-6.93c2.1-4.5,3.93-9.01,5.94-13.66
							c1.03-2.32,1.9-4.74,2.81-7.23c0.9-2.5,1.83-5.07,2.71-7.78c0.8-2.73,1.59-5.59,2.35-8.6c0.37-1.51,0.78-3.05,1.09-4.65
							c0.31-1.6,0.61-3.25,0.9-4.94l-1.55,3.26c0.61-2.38,1.34-5.48,2.1-8.75c0.4-1.63,0.72-3.32,1.05-4.99
							c0.33-1.67,0.65-3.32,0.96-4.87c1.32-6.22,2.06-11.08,2.38-10.19c0.03-1.02-0.23-3.31,0.79-7.04l0.62-0.21
							c0.83-8.03,1.6-16.05,2-24.1c0.29-2.32,0.54-4.01,0.76-5.25c0.19-1.24,0.35-2.03,0.51-2.53c0.31-1.01,0.58-0.89,0.86-1.04
							c0.28-0.15,0.57-0.57,0.92-2.66c0.18-1.05,0.36-2.51,0.58-4.57c0.1-1.03,0.21-2.21,0.33-3.55c0.07-1.35,0.15-2.87,0.24-4.58
							c0.05-2.55,0.05-5.64,0-8.78c-0.04-3.14-0.28-6.33-0.44-9.08c-0.37-5.5-0.78-9.23-1-7.32c-0.08,4.1-0.51,10.46-1.09,10.75
							l-0.18-9.27c-1.7-1.71-3.33-8.72-4.88,13.79c0.1,5.24,0.31,10.49,0.33,15.74l-1.19,4.99l0.45-6.59l0.26-6.6
							c-1.02,7.45-0.81,12.21-0.69,17.56c-0.53,1.22-0.98,3.39-1.49,6.47c-0.01,5.15,0.13,10.33-0.09,15.49
							c-0.91,1.76-0.4-7.01-2.14,3.17c-0.21,7.26,2.41-6.66,1.31,5.27c-1.98,7.31-2.27,5.02-3.06,13.83
							c-0.67,1.14-0.59-0.75-0.22-4.22c-0.74,7.83-3.79,20.36-3.93,24.49c-0.71,1.84-1.35,4.39-2.16,7.11
							c-0.8,2.72-1.6,5.65-2.35,8.31c-0.71,2.68-1.55,5.03-2.19,6.67c-0.66,1.64-1.18,2.54-1.51,2.23
							c-0.09,0.61-0.32,1.77-0.65,3.26c-0.17,0.74-0.36,1.57-0.56,2.46c-0.24,0.88-0.5,1.81-0.77,2.79
							c-0.55,1.94-1.16,4.03-1.78,6.05c-0.32,1.01-0.63,2-0.93,2.96c-0.32,0.95-0.68,1.85-1,2.68c1.54-6.44-0.99-0.21-3.99,7.11
							c-3.15,7.26-7.05,15.5-7.28,13.47c-0.68,2.35-1.95,5.5-3.58,9.16c-1.69,3.63-3.9,7.67-6.17,11.95
							c-1.23,2.08-2.49,4.21-3.76,6.36c-1.26,2.15-2.51,4.31-3.88,6.37c-2.67,4.16-5.17,8.27-7.53,11.88
							c0.45-0.86,1.31-2.57,2.26-3.75c-2.87,3.9-4.81,6.35-6.52,8.43c-1.75,2.05-3.32,3.69-5.32,6.06c0.19,0.93-1.89,4.48-4.79,8.49
							c-1.44,2.02-2.98,4.24-4.54,6.3c-1.58,2.05-3.08,4.02-4.27,5.7c-8.93,7.94,3.54-6.53,0.04-4.62c0.32,0.08-0.32,1.13-1.4,2.63
							c-1.09,1.49-2.59,3.46-4.15,5.23c-3.06,3.59-5.85,6.88-4.11,5.75c-1.7,1.51-2.98,2.53-3.93,3.32
							c-0.95,0.78-1.61,1.32-2.15,1.77c-1.11,0.87-1.85,1.34-3.93,2.53c0.07,1.23-1.44,2.71-3.57,4.61
							c-1.06,0.95-2.27,2.01-3.52,3.2c-0.63,0.59-1.26,1.22-1.89,1.89c-0.65,0.64-1.3,1.31-1.93,2.02
							c-10.66,7.73-3.55,1-14.55,10.31c-2.87,1.88-1.87,0.73-0.17-0.89C1560.79,565.64,1563.21,563.55,1563.21,563.55z
							 M1591.2,859.25c-0.01,0-0.02,0.01-0.02,0.01c-1.11-2.78-2.05-5.15-2.65-6.66C1589.09,853.98,1589.86,855.9,1591.2,859.25z
							 M1601.8,886.44c-1.25-3.33-2.85-7.45-4.55-11.81c-0.04-1.08,0.71-0.18,1.75,2.56C1598.2,875.79,1600.5,882.27,1601.8,886.44z
							 M1586.11,826.31c1.81,4.25,2.18,5.77,2.21,6.43c-0.82-2.02-1.78-4.38-3.04-7.48c-0.08-0.11-0.23-0.35-0.32-0.46
							C1585.3,825.14,1585.66,825.54,1586.11,826.31z"/>
						<path class="st1" d="M1581.83,819.07c-0.26-0.61-0.44-0.94-0.76-1.75c0.26,0.91,0.51,1.78,0.78,2.65
							c0.31,0.48,0.62,0.98,0.9,1.41C1582.44,820.6,1582.12,819.79,1581.83,819.07z"/>
						<path class="st1" d="M1265.33,26.92l-0.62-0.02c0.51,0.04,0.98,0.08,1.29,0.15C1265.6,27,1265.6,26.97,1265.33,26.92z"/>
						<polygon class="st1" points="1449.32,1003.3 1449.09,1003.43 1450.18,1005.75 						"/>
						<path class="st1" d="M1426.01,30.6c0.3,0.1,0.9,0.2,2.1,0.3C1428.02,30.83,1427.11,30.72,1426.01,30.6z"/>
						<path class="st1" d="M1494.72,37.05l9.5,2.23C1500.12,38.27,1497.12,37.58,1494.72,37.05z"/>
						<path class="st1" d="M1545.73,51.01c0.68,0.07,0.91,0.01,1.12-0.04c-0.04-0.02-0.06-0.03-0.09-0.04L1545.73,51.01z"/>
						<path class="st1" d="M1070.64,460.84c-0.11,0.71-0.21,1.41-0.29,2.04C1069.76,467.68,1070.22,464.43,1070.64,460.84z"/>
						<path class="st1" d="M1109.22,211.23c-0.25,2.67-0.5,5.31-0.83,8.09C1109.19,214.9,1109.78,211.46,1109.22,211.23z"/>
						<path class="st1" d="M1026.12,739.33c0-0.03-0.01,0-0.01-0.03c-0.1,0.6-0.18,1.12-0.28,1.72L1026.12,739.33z"/>
						<path class="st1" d="M1106.46,230.91c0.93-4.4,1.5-8.12,1.92-11.58C1107.72,222.95,1106.91,227.22,1106.46,230.91z"/>
						<path class="st1" d="M1684.11,217.68l0.42,2.51c0.06-0.05,0.14,0.09,0.22,0.27L1684.11,217.68z"/>
						<path class="st1" d="M1684.74,220.46c0.2,0.92,0.44,1.84,0.61,2.77C1685.16,221.94,1684.92,220.84,1684.74,220.46z"/>
						<path class="st1" d="M1686.42,229.09l-1.07-5.86C1685.63,225.27,1685.94,227.79,1686.42,229.09z"/>
						<path class="st1" d="M1663.43,151.25l-0.68-0.55C1663.01,151.06,1663.24,151.26,1663.43,151.25z"/>
						<path class="st1" d="M1652.91,132.9c0.66,1.08,1.37,2.31,2.13,3.64c0.37,0.67,0.78,1.35,1.16,2.07
							c0.36,0.73,0.73,1.49,1.1,2.26c0.75,1.53,1.55,3.11,2.38,4.69l1.27,2.35l0.66,1.16c0.2,0.39,0.4,0.79,0.6,1.18l0.55,0.46
							c-0.88-1.41-2.65-4.86-4.4-8.55C1656.66,138.42,1654.45,134.76,1652.91,132.9z"/>
						<path class="st1" d="M1592.28,68.2c2.54,1.64,5.02,3.37,7.53,5.05c1.24,0.86,2.52,1.66,3.73,2.57l3.61,2.74
							c-2.31-2.2-5.38-5.12,1.34-0.3c-2.23-1.81-3.84-3.14-5.02-4.05c-1.21-0.86-1.95-1.36-2.38-1.63c-0.86-0.53-0.46-0.1-0.11,0.34
							C1601.67,73.83,1602.22,74.71,1592.28,68.2z"/>
						<path class="st1" d="M1541.54,44.2c9.31,2.92,0.08-0.58,0.64-0.64C1536.18,41.94,1534.75,41.55,1541.54,44.2z"/>
						<path class="st1" d="M1138.14,26.1c0.28-0.31,0.61-0.63,0.99-0.94c-2.27,0.03-3.62,0.06-4.17,0.09
							c-0.19,1.55-0.04,1.08,0.21,0.25C1136.54,25.64,1138.6,25.83,1138.14,26.1z"/>
						<polygon class="st1" points="1127.94,103.19 1129.7,96.13 1129.41,92.58 						"/>
						<polygon class="st1" points="1113.93,147.03 1114.33,143.79 1112.65,156.12 						"/>
						<path class="st1" d="M1004.42,815.27l1.51-2.03C1006.54,808.23,1005.42,806.98,1004.42,815.27z"/>
						<path class="st1" d="M1040.46,1039.43c3.18,0.58,11.41,0.95,16.47,0.38C1050.36,1039.73,1043.81,1039.28,1040.46,1039.43z"/>
						<polygon class="st1" points="1414.02,933.65 1411.64,928.26 1415.74,938.56 						"/>
					</g>
				</g>
			</g>
		</g>
	</g>
</g>
</svg>
